M48
;Layer_Color=9474304
;FILE_FORMAT=2:5
INCH,LZ
;TYPE=PLATED
T1F00S00C0.01000
T2F00S00C0.01200
T3F00S00C0.03543
T4F00S00C0.03583
T5F00S00C0.03937
T6F00S00C0.04134
T7F00S00C0.04331
T8F00S00C0.05906
T9F00S00C0.06299
T10F00S00C0.12598
T11F00S00C0.16929
%
T01
X0190256Y0059252
X0193898Y0091437
X0235728Y006191
X0156004Y0061122
X0159252Y0077559
X0162205Y007559
X0123031Y0087598
X0124803Y0046161
X0099803Y0047736
X0099213Y0028839
X0104331Y0028346
X0111516Y0014173
X0146555Y0013878
X0150197Y0035728
X0076378Y0033169
X0079429Y0027657
X0075197Y004065
X0057874Y0025
X0080315Y017126
X0163976Y0126181
X0237795Y0120177
X0248524Y0123425
X0250886Y0116339
X0259941Y0126476
Y0129626
X0273721Y0154035
X0294193Y0150886
T02
X0180709Y0029232
X0191831
X0204134
X0211417Y0041043
X0225787Y0048524
X0223622Y0073425
X0250492Y0076083
X0263681Y0045472
X0269685Y0030807
X0181102Y005935
X0188091Y008937
X0201279
X0172146Y0029232
X0139075Y0056398
X015374Y0102461
X0162894Y0102264
X0068898Y0102756
X0186221Y0103347
X0205118Y0103248
X0208268Y0118405
X0216339Y0118701
X0219094Y0124902
X0214665Y0128937
X0192815Y0118898
X025935Y0120177
X026309Y0102067
X0262205Y0214075
X0242618Y0213878
X021565Y0184744
T03
X0219921Y0030906
X0229921
X0239921
X0249921
Y0040905
X0239921
X0229921
X0219921
X0122264Y0097441
X0112264
X0102264
X0092264
X0082264
X0239252Y0188091
X0249252
X0259252
X0269252
T04
X0034252Y0057973
X0042126
X005
X0057874
X0065748
X0073622
X0081496
X008937
X0097244
X0105118
Y0144587
X0097244
X008937
X0081496
X0073622
X0065748
X0057874
X005
X0042126
X0034252
T05
X0148819Y0132618
Y0142618
X0287598Y0167323
Y0177323
X0318898
Y0167323
X0335892
Y0177323
X0335827Y0152756
Y0142756
T06
X0328248Y0102362
Y0112362
Y0122362
T07
X0276142Y0035315
X0287953
X0299764
X0311575
T08
X016348Y0198626
T09
X0153622Y0188484
X0173622
Y0208484
X0153622
T10
X0284646Y0018307
X030315
T11
X0337795Y0013878
X001437Y0014469
Y0208563
X0337795
M30
