G04*
G04 #@! TF.GenerationSoftware,Altium Limited,Altium Designer,18.1.9 (240)*
G04*
G04 Layer_Color=32896*
%FSLAX25Y25*%
%MOIN*%
G70*
G01*
G75*
%ADD10C,0.00984*%
%ADD11C,0.02362*%
%ADD12C,0.00700*%
%ADD13C,0.00787*%
%ADD14C,0.01000*%
%ADD15C,0.00394*%
%ADD17C,0.00800*%
%ADD110C,0.00600*%
D10*
X271437Y140256D02*
G03*
X271437Y140256I-492J0D01*
G01*
X292000Y105685D02*
G03*
X292000Y105685I-492J0D01*
G01*
D11*
X277165Y131595D02*
G03*
X277165Y131595I-1181J0D01*
G01*
D12*
X-142647Y72907D02*
Y68909D01*
X-140648D01*
X-139981Y69575D01*
Y70241D01*
X-140648Y70908D01*
X-142647D01*
X-140648D01*
X-139981Y71574D01*
Y72241D01*
X-140648Y72907D01*
X-142647D01*
X-137982Y68909D02*
X-136649D01*
X-135983Y69575D01*
Y70908D01*
X-136649Y71574D01*
X-137982D01*
X-138648Y70908D01*
Y69575D01*
X-137982Y68909D01*
X-133983Y72241D02*
Y71574D01*
X-134650D01*
X-133317D01*
X-133983D01*
Y69575D01*
X-133317Y68909D01*
X-130651Y72241D02*
Y71574D01*
X-131317D01*
X-129984D01*
X-130651D01*
Y69575D01*
X-129984Y68909D01*
X-127319D02*
X-125986D01*
X-125319Y69575D01*
Y70908D01*
X-125986Y71574D01*
X-127319D01*
X-127985Y70908D01*
Y69575D01*
X-127319Y68909D01*
X-123986D02*
Y71574D01*
X-123320D01*
X-122653Y70908D01*
Y68909D01*
Y70908D01*
X-121987Y71574D01*
X-121321Y70908D01*
Y68909D01*
X-113990Y72907D02*
X-115322D01*
X-115989Y72241D01*
Y69575D01*
X-115322Y68909D01*
X-113990D01*
X-113323Y69575D01*
Y72241D01*
X-113990Y72907D01*
X-111990Y71574D02*
X-110657Y68909D01*
X-109324Y71574D01*
X-105992Y68909D02*
X-107325D01*
X-107992Y69575D01*
Y70908D01*
X-107325Y71574D01*
X-105992D01*
X-105326Y70908D01*
Y70241D01*
X-107992D01*
X-103993Y71574D02*
Y68909D01*
Y70241D01*
X-103326Y70908D01*
X-102660Y71574D01*
X-101994D01*
X-99994Y68909D02*
X-98661D01*
X-99328D01*
Y72907D01*
X-99994D01*
X-95995Y71574D02*
X-94662D01*
X-93996Y70908D01*
Y68909D01*
X-95995D01*
X-96662Y69575D01*
X-95995Y70241D01*
X-93996D01*
X-92663Y71574D02*
Y69575D01*
X-91997Y68909D01*
X-89997D01*
Y68242D01*
X-90664Y67576D01*
X-91330D01*
X-89997Y68909D02*
Y71574D01*
D13*
X277362Y54724D02*
X279035D01*
X277362Y50787D02*
Y54724D01*
X284350D02*
X286024D01*
Y50787D02*
Y54724D01*
X291732Y122933D02*
Y135531D01*
X272047Y122933D02*
Y135531D01*
Y122933D02*
X291732D01*
X272047Y135531D02*
X291732D01*
X158366Y110827D02*
Y173819D01*
X221358Y110827D02*
Y173819D01*
X158366D02*
X159744D01*
X219980D02*
X221358D01*
X158366Y110827D02*
X159744D01*
X219980D02*
X221358D01*
D14*
X134132Y152643D02*
Y156641D01*
X132133Y158641D01*
X130134Y156641D01*
Y152643D01*
Y155642D01*
X134132D01*
X125135Y152643D02*
Y158641D01*
X128134Y155642D01*
X124136D01*
X273207Y46850D02*
X268209D01*
Y49350D01*
X269042Y50183D01*
X272374D01*
X273207Y49350D01*
Y46850D01*
Y55181D02*
X272374Y53515D01*
X270708Y51849D01*
X269042D01*
X268209Y52682D01*
Y54348D01*
X269042Y55181D01*
X269875D01*
X270708Y54348D01*
Y51849D01*
X268898Y149699D02*
Y144701D01*
X267898Y143701D01*
X265899D01*
X264899Y144701D01*
Y149699D01*
X262900Y148699D02*
X261900Y149699D01*
X259901D01*
X258901Y148699D01*
Y147699D01*
X259901Y146700D01*
X260900D01*
X259901D01*
X258901Y145700D01*
Y144701D01*
X259901Y143701D01*
X261900D01*
X262900Y144701D01*
X195472Y206785D02*
X191474Y200787D01*
Y206785D02*
X195472Y200787D01*
X189474Y205786D02*
X188475Y206785D01*
X186475D01*
X185476Y205786D01*
Y204786D01*
X186475Y203786D01*
X187475D01*
X186475D01*
X185476Y202787D01*
Y201787D01*
X186475Y200787D01*
X188475D01*
X189474Y201787D01*
X140933Y217112D02*
Y213114D01*
X138934Y211115D01*
X136934Y213114D01*
Y217112D01*
X134935Y211115D02*
X132936D01*
X133935D01*
Y217112D01*
X134935Y216113D01*
X250492Y131967D02*
Y126969D01*
X247160D01*
X245494D02*
X243828D01*
X244661D01*
Y131967D01*
X245494Y131134D01*
X221595Y187187D02*
Y182188D01*
X220595Y181188D01*
X218596D01*
X217596Y182188D01*
Y187187D01*
X212597Y181188D02*
Y187187D01*
X215597Y184187D01*
X211598D01*
X267006Y86479D02*
X268006Y85479D01*
Y83480D01*
X267006Y82480D01*
X266007D01*
X265007Y83480D01*
Y85479D01*
X264007Y86479D01*
X263007D01*
X262008Y85479D01*
Y83480D01*
X263007Y82480D01*
X268006Y88478D02*
X262008D01*
X264007Y90478D01*
X262008Y92477D01*
X268006D01*
X262008Y98475D02*
Y94476D01*
X266007Y98475D01*
X267006D01*
X268006Y97475D01*
Y95476D01*
X267006Y94476D01*
X225984Y206490D02*
X221986Y200492D01*
Y206490D02*
X225984Y200492D01*
X215987D02*
X219986D01*
X215987Y204491D01*
Y205490D01*
X216987Y206490D01*
X218987D01*
X219986Y205490D01*
X309480Y102840D02*
X310313Y102007D01*
Y100341D01*
X309480Y99508D01*
X306148D01*
X305315Y100341D01*
Y102007D01*
X306148Y102840D01*
X305315Y104506D02*
Y106172D01*
Y105339D01*
X310313D01*
X309480Y104506D01*
X305315Y111171D02*
X310313D01*
X307814Y108672D01*
Y112004D01*
X309579Y117801D02*
X310412Y116968D01*
Y115302D01*
X309579Y114469D01*
X306246D01*
X305413Y115302D01*
Y116968D01*
X306246Y117801D01*
X305413Y119467D02*
Y121133D01*
Y120300D01*
X310412D01*
X309579Y119467D01*
X310412Y126964D02*
Y123632D01*
X307913D01*
X308746Y125298D01*
Y126131D01*
X307913Y126964D01*
X306246D01*
X305413Y126131D01*
Y124465D01*
X306246Y123632D01*
X299539Y130006D02*
X300372Y129172D01*
Y127506D01*
X299539Y126673D01*
X296207D01*
X295374Y127506D01*
Y129172D01*
X296207Y130006D01*
X295374Y135004D02*
Y131672D01*
X298706Y135004D01*
X299539D01*
X300372Y134171D01*
Y132505D01*
X299539Y131672D01*
X295374Y136670D02*
Y138336D01*
Y137503D01*
X300372D01*
X299539Y136670D01*
X284955Y159283D02*
X285788Y160117D01*
X287454D01*
X288287Y159283D01*
Y155951D01*
X287454Y155118D01*
X285788D01*
X284955Y155951D01*
X279957Y155118D02*
X283289D01*
X279957Y158450D01*
Y159283D01*
X280790Y160117D01*
X282456D01*
X283289Y159283D01*
X278291D02*
X277458Y160117D01*
X275791D01*
X274958Y159283D01*
Y155951D01*
X275791Y155118D01*
X277458D01*
X278291Y155951D01*
Y159283D01*
X317748Y64553D02*
X318581Y63720D01*
Y62054D01*
X317748Y61221D01*
X314416D01*
X313583Y62054D01*
Y63720D01*
X314416Y64553D01*
X313583Y69551D02*
Y66219D01*
X316915Y69551D01*
X317748D01*
X318581Y68718D01*
Y67052D01*
X317748Y66219D01*
X313583Y74550D02*
Y71217D01*
X316915Y74550D01*
X317748D01*
X318581Y73716D01*
Y72050D01*
X317748Y71217D01*
X306004Y61221D02*
X311002D01*
Y63720D01*
X310169Y64553D01*
X308503D01*
X307670Y63720D01*
Y61221D01*
Y62887D02*
X306004Y64553D01*
Y66219D02*
Y67885D01*
Y67052D01*
X311002D01*
X310169Y66219D01*
X306004Y72883D02*
X311002D01*
X308503Y70384D01*
Y73716D01*
X321161Y61221D02*
X326160D01*
Y63720D01*
X325327Y64553D01*
X323661D01*
X322828Y63720D01*
Y61221D01*
Y62887D02*
X321161Y64553D01*
Y66219D02*
Y67885D01*
Y67052D01*
X326160D01*
X325327Y66219D01*
X326160Y73716D02*
Y70384D01*
X323661D01*
X324494Y72050D01*
Y72883D01*
X323661Y73716D01*
X321994D01*
X321161Y72883D01*
Y71217D01*
X321994Y70384D01*
X262992Y126673D02*
X267990D01*
Y129172D01*
X267158Y130006D01*
X265491D01*
X264658Y129172D01*
Y126673D01*
Y128339D02*
X262992Y130006D01*
Y131672D02*
Y133338D01*
Y132505D01*
X267990D01*
X267158Y131672D01*
Y135837D02*
X267990Y136670D01*
Y138336D01*
X267158Y139169D01*
X266324D01*
X265491Y138336D01*
Y137503D01*
Y138336D01*
X264658Y139169D01*
X263825D01*
X262992Y138336D01*
Y136670D01*
X263825Y135837D01*
X189401Y68588D02*
X190235Y67755D01*
Y66089D01*
X189401Y65256D01*
X186069D01*
X185236Y66089D01*
Y67755D01*
X186069Y68588D01*
X185236Y72754D02*
X190235D01*
X187735Y70254D01*
Y73587D01*
X196341Y68588D02*
X197174Y67755D01*
Y66089D01*
X196341Y65256D01*
X193008D01*
X192175Y66089D01*
Y67755D01*
X193008Y68588D01*
X196341Y70254D02*
X197174Y71087D01*
Y72754D01*
X196341Y73586D01*
X195507D01*
X194674Y72754D01*
X193841Y73586D01*
X193008D01*
X192175Y72754D01*
Y71087D01*
X193008Y70254D01*
X193841D01*
X194674Y71087D01*
X195507Y70254D01*
X196341D01*
X194674Y71087D02*
Y72754D01*
X203279Y68588D02*
X204113Y67755D01*
Y66089D01*
X203279Y65256D01*
X199947D01*
X199114Y66089D01*
Y67755D01*
X199947Y68588D01*
Y70254D02*
X199114Y71087D01*
Y72754D01*
X199947Y73586D01*
X203279D01*
X204113Y72754D01*
Y71087D01*
X203279Y70254D01*
X202446D01*
X201613Y71087D01*
Y73586D01*
X208201Y93490D02*
X209034Y92657D01*
Y90991D01*
X208201Y90158D01*
X204869D01*
X204035Y90991D01*
Y92657D01*
X204869Y93490D01*
X204035Y98488D02*
Y95156D01*
X207368Y98488D01*
X208201D01*
X209034Y97655D01*
Y95989D01*
X208201Y95156D01*
X204869Y100154D02*
X204035Y100987D01*
Y102653D01*
X204869Y103487D01*
X208201D01*
X209034Y102653D01*
Y100987D01*
X208201Y100154D01*
X207368D01*
X206535Y100987D01*
Y103487D01*
X247160Y122866D02*
X247993Y123699D01*
X249659D01*
X250492Y122866D01*
Y119534D01*
X249659Y118701D01*
X247993D01*
X247160Y119534D01*
X242161Y118701D02*
X245494D01*
X242161Y122033D01*
Y122866D01*
X242995Y123699D01*
X244661D01*
X245494Y122866D01*
X240495Y123699D02*
X237163D01*
Y122866D01*
X240495Y119534D01*
Y118701D01*
X247160Y114598D02*
X247993Y115431D01*
X249659D01*
X250492Y114598D01*
Y111266D01*
X249659Y110433D01*
X247993D01*
X247160Y111266D01*
X242161Y110433D02*
X245494D01*
X242161Y113765D01*
Y114598D01*
X242995Y115431D01*
X244661D01*
X245494Y114598D01*
X240495D02*
X239662Y115431D01*
X237996D01*
X237163Y114598D01*
Y113765D01*
X237996Y112932D01*
X237163Y112099D01*
Y111266D01*
X237996Y110433D01*
X239662D01*
X240495Y111266D01*
Y112099D01*
X239662Y112932D01*
X240495Y113765D01*
Y114598D01*
X239662Y112932D02*
X237996D01*
X250492Y135236D02*
Y140235D01*
X247993D01*
X247160Y139401D01*
Y137735D01*
X247993Y136902D01*
X250492D01*
X248826D02*
X247160Y135236D01*
X245494D02*
X243828D01*
X244661D01*
Y140235D01*
X245494Y139401D01*
X241328Y140235D02*
X237996D01*
Y139401D01*
X241328Y136069D01*
Y135236D01*
D15*
X221555Y109252D02*
G03*
X221555Y109252I-197J0D01*
G01*
D17*
X133552Y53287D02*
Y149287D01*
X29552D02*
X133552D01*
X29552Y53287D02*
X133552D01*
X29552D02*
Y53287D01*
X29517D02*
X29552D01*
X3852Y78987D02*
X29552Y53287D01*
X3852Y78987D02*
Y123621D01*
X29517Y149287D01*
X59429Y207736D02*
X141555D01*
X59429Y154665D02*
Y207736D01*
Y154665D02*
X141555D01*
Y207736D01*
X276870Y200295D02*
Y207776D01*
X231988Y200295D02*
X276870D01*
X231988D02*
Y206201D01*
X295079Y67421D02*
X296949Y65551D01*
X295079Y67421D02*
X297146Y69488D01*
X295079Y67421D02*
X303740D01*
Y60335D02*
Y75197D01*
D110*
X288158Y74902D02*
Y76870D01*
X274378Y74902D02*
X288158D01*
X274378D02*
Y76870D01*
Y106398D02*
Y108366D01*
X288158D01*
Y106398D02*
Y108366D01*
M02*
