G04*
G04 #@! TF.GenerationSoftware,Altium Limited,Altium Designer,18.1.9 (240)*
G04*
G04 Layer_Color=8388736*
%FSLAX25Y25*%
%MOIN*%
G70*
G01*
G75*
%ADD12C,0.00700*%
%ADD37R,0.05524X0.09461*%
%ADD38R,0.23635X0.27178*%
%ADD39R,0.05131X0.03162*%
%ADD40R,0.03950X0.04540*%
%ADD41R,0.01587X0.03162*%
%ADD42R,0.03162X0.01587*%
%ADD43R,0.07099X0.01981*%
%ADD44R,0.10249X0.08674*%
%ADD45R,0.06509X0.01981*%
%ADD46R,0.01981X0.06509*%
%ADD47R,0.07690X0.06706*%
%ADD48R,0.05918X0.05131*%
%ADD49R,0.04147X0.03950*%
%ADD50R,0.04343X0.04540*%
%ADD51R,0.03353X0.01384*%
%ADD52R,0.17493X0.15800*%
%ADD53R,0.09461X0.11824*%
%ADD54R,0.04540X0.04343*%
%ADD55R,0.04540X0.03950*%
%ADD56C,0.06784*%
%ADD57R,0.06784X0.06784*%
%ADD58C,0.10249*%
%ADD59C,0.10642*%
%ADD60C,0.06706*%
%ADD61R,0.06706X0.06706*%
%ADD62R,0.07690X0.07690*%
%ADD63C,0.07690*%
%ADD64C,0.14580*%
%ADD65C,0.24422*%
%ADD66C,0.02800*%
%ADD67C,0.03300*%
D12*
X-143131Y109947D02*
X-140465D01*
X-141798D01*
Y105949D01*
X-138466D02*
X-137133D01*
X-136467Y106615D01*
Y107948D01*
X-137133Y108615D01*
X-138466D01*
X-139132Y107948D01*
Y106615D01*
X-138466Y105949D01*
X-135134Y104616D02*
Y108615D01*
X-133134D01*
X-132468Y107948D01*
Y106615D01*
X-133134Y105949D01*
X-135134D01*
X-124471Y109281D02*
X-125137Y109947D01*
X-126470D01*
X-127136Y109281D01*
Y108615D01*
X-126470Y107948D01*
X-125137D01*
X-124471Y107282D01*
Y106615D01*
X-125137Y105949D01*
X-126470D01*
X-127136Y106615D01*
X-122471Y105949D02*
X-121138D01*
X-120472Y106615D01*
Y107948D01*
X-121138Y108615D01*
X-122471D01*
X-123138Y107948D01*
Y106615D01*
X-122471Y105949D01*
X-119139D02*
X-117806D01*
X-118473D01*
Y109947D01*
X-119139D01*
X-113141D02*
Y105949D01*
X-115140D01*
X-115807Y106615D01*
Y107948D01*
X-115140Y108615D01*
X-113141D01*
X-109809Y105949D02*
X-111142D01*
X-111808Y106615D01*
Y107948D01*
X-111142Y108615D01*
X-109809D01*
X-109142Y107948D01*
Y107282D01*
X-111808D01*
X-107809Y108615D02*
Y105949D01*
Y107282D01*
X-107143Y107948D01*
X-106476Y108615D01*
X-105810D01*
D37*
X286516Y129232D02*
D03*
X268406D02*
D03*
D38*
X277461Y104429D02*
D03*
D39*
X77264Y20669D02*
D03*
Y13189D02*
D03*
X66634D02*
D03*
Y16929D02*
D03*
Y20669D02*
D03*
D40*
X85138Y21358D02*
D03*
X91043D02*
D03*
X151378Y119095D02*
D03*
X145472D02*
D03*
X245768Y61417D02*
D03*
X239862D02*
D03*
X253346Y61319D02*
D03*
X259252D02*
D03*
X239862Y54035D02*
D03*
X245768D02*
D03*
X151279Y112008D02*
D03*
X145374D02*
D03*
X231791Y54232D02*
D03*
X225886D02*
D03*
X149705Y52264D02*
D03*
X143799D02*
D03*
D41*
X92618Y43110D02*
D03*
X91043D02*
D03*
X89468D02*
D03*
X87894D02*
D03*
X86319D02*
D03*
X84744D02*
D03*
Y30906D02*
D03*
X86319D02*
D03*
X87894D02*
D03*
X89468D02*
D03*
X91043D02*
D03*
X92618D02*
D03*
D42*
X82579Y40945D02*
D03*
Y39370D02*
D03*
Y37795D02*
D03*
Y36220D02*
D03*
Y34646D02*
D03*
Y33071D02*
D03*
X94784D02*
D03*
Y34646D02*
D03*
Y36220D02*
D03*
Y37795D02*
D03*
Y39370D02*
D03*
Y40945D02*
D03*
D43*
X114469Y46260D02*
D03*
Y43701D02*
D03*
Y41142D02*
D03*
Y38583D02*
D03*
Y36024D02*
D03*
Y33465D02*
D03*
Y30906D02*
D03*
Y28346D02*
D03*
Y25787D02*
D03*
Y23228D02*
D03*
X136516Y46260D02*
D03*
Y43701D02*
D03*
Y41142D02*
D03*
Y38583D02*
D03*
Y36024D02*
D03*
Y33465D02*
D03*
Y30906D02*
D03*
Y28346D02*
D03*
Y25787D02*
D03*
Y23228D02*
D03*
D44*
X199311Y22441D02*
D03*
X183563D02*
D03*
D45*
X215650Y89370D02*
D03*
Y87402D02*
D03*
Y85433D02*
D03*
Y83465D02*
D03*
Y81496D02*
D03*
Y79528D02*
D03*
Y77559D02*
D03*
Y75590D02*
D03*
Y73622D02*
D03*
Y71653D02*
D03*
Y69685D02*
D03*
Y67716D02*
D03*
Y65748D02*
D03*
Y63779D02*
D03*
Y61811D02*
D03*
Y59842D02*
D03*
X170571D02*
D03*
Y61811D02*
D03*
Y63779D02*
D03*
Y65748D02*
D03*
Y67716D02*
D03*
Y69685D02*
D03*
Y71653D02*
D03*
Y73622D02*
D03*
Y75590D02*
D03*
Y77559D02*
D03*
Y79528D02*
D03*
Y81496D02*
D03*
Y83465D02*
D03*
Y85433D02*
D03*
Y87402D02*
D03*
Y89370D02*
D03*
D46*
X207874Y52067D02*
D03*
X205906D02*
D03*
X203937D02*
D03*
X201969D02*
D03*
X200000D02*
D03*
X198031D02*
D03*
X196063D02*
D03*
X194095D02*
D03*
X192126D02*
D03*
X190157D02*
D03*
X188189D02*
D03*
X186221D02*
D03*
X184252D02*
D03*
X182283D02*
D03*
X180315D02*
D03*
X178347D02*
D03*
Y97146D02*
D03*
X180315D02*
D03*
X182283D02*
D03*
X184252D02*
D03*
X186221D02*
D03*
X188189D02*
D03*
X190157D02*
D03*
X192126D02*
D03*
X194095D02*
D03*
X196063D02*
D03*
X198031D02*
D03*
X200000D02*
D03*
X201969D02*
D03*
X203937D02*
D03*
X205906D02*
D03*
X207874D02*
D03*
D47*
X215846Y165059D02*
D03*
Y151279D02*
D03*
X238779Y151378D02*
D03*
Y165157D02*
D03*
X249016Y151378D02*
D03*
Y165157D02*
D03*
X228937Y151378D02*
D03*
Y165157D02*
D03*
D48*
X302264Y181988D02*
D03*
Y174114D02*
D03*
D49*
X97342Y20374D02*
D03*
Y15059D02*
D03*
D50*
X64862Y38780D02*
D03*
X71161D02*
D03*
X247835Y213976D02*
D03*
X254134D02*
D03*
X289075Y144882D02*
D03*
X282776D02*
D03*
X273917D02*
D03*
X267618D02*
D03*
X143799Y59547D02*
D03*
X150098D02*
D03*
X245768Y70965D02*
D03*
X239469D02*
D03*
X143799Y79429D02*
D03*
X150098D02*
D03*
X143799Y66240D02*
D03*
X150098D02*
D03*
X143799Y72933D02*
D03*
X150098D02*
D03*
X143799Y86122D02*
D03*
X150098D02*
D03*
X71063Y45965D02*
D03*
X64764D02*
D03*
X64961Y31594D02*
D03*
X71260D02*
D03*
X85039Y14665D02*
D03*
X91339D02*
D03*
D51*
X243996Y117717D02*
D03*
Y119685D02*
D03*
Y121654D02*
D03*
Y123622D02*
D03*
X231791Y117717D02*
D03*
Y119685D02*
D03*
Y121654D02*
D03*
Y123622D02*
D03*
D52*
X313110Y69685D02*
D03*
X338189D02*
D03*
D53*
X162205Y19094D02*
D03*
Y37992D02*
D03*
X75492Y161614D02*
D03*
Y180512D02*
D03*
D54*
X65453Y108268D02*
D03*
Y114567D02*
D03*
X72539Y108169D02*
D03*
Y114469D02*
D03*
X87008Y164265D02*
D03*
Y157966D02*
D03*
X188779Y34646D02*
D03*
Y40945D02*
D03*
X195374Y34646D02*
D03*
Y40945D02*
D03*
X204035Y34646D02*
D03*
Y40945D02*
D03*
X173917Y34646D02*
D03*
Y40945D02*
D03*
X57776Y13189D02*
D03*
Y19488D02*
D03*
X146358Y19291D02*
D03*
Y25591D02*
D03*
X104134Y14469D02*
D03*
Y20768D02*
D03*
D55*
X94193Y157972D02*
D03*
Y163878D02*
D03*
X238878Y139173D02*
D03*
Y133268D02*
D03*
X245571Y139173D02*
D03*
Y133268D02*
D03*
X232087Y139173D02*
D03*
Y133268D02*
D03*
X180709Y40945D02*
D03*
Y35039D02*
D03*
X215748Y133268D02*
D03*
Y139173D02*
D03*
X302362Y162106D02*
D03*
Y168012D02*
D03*
D56*
X105118Y57973D02*
D03*
X97244D02*
D03*
X89370D02*
D03*
X81496D02*
D03*
X73622D02*
D03*
X65748D02*
D03*
X57874D02*
D03*
X50000D02*
D03*
X42126D02*
D03*
X34252D02*
D03*
X105118Y144587D02*
D03*
X97244D02*
D03*
X89370D02*
D03*
X81496D02*
D03*
X73622D02*
D03*
X65748D02*
D03*
X57874D02*
D03*
X50000D02*
D03*
X42126D02*
D03*
D57*
X34252D02*
D03*
D58*
X163480Y198626D02*
D03*
D59*
X173622Y188484D02*
D03*
Y208484D02*
D03*
X153622Y188484D02*
D03*
Y208484D02*
D03*
D60*
X328248Y122362D02*
D03*
Y112362D02*
D03*
Y102362D02*
D03*
X219921Y30906D02*
D03*
Y40905D02*
D03*
X229921Y30906D02*
D03*
Y40905D02*
D03*
X239921Y30906D02*
D03*
Y40905D02*
D03*
X249921Y30906D02*
D03*
X92264Y97441D02*
D03*
X102264D02*
D03*
X112264D02*
D03*
X122264D02*
D03*
X269252Y188091D02*
D03*
X259252D02*
D03*
X249252D02*
D03*
X311575Y35315D02*
D03*
X299764D02*
D03*
X287953D02*
D03*
X276142D02*
D03*
D61*
X249921Y40905D02*
D03*
X82264Y97441D02*
D03*
X239252Y188091D02*
D03*
D62*
X148819Y132618D02*
D03*
X335827Y142756D02*
D03*
X318898Y167323D02*
D03*
X287598D02*
D03*
X335892D02*
D03*
D63*
X148819Y142618D02*
D03*
X335827Y152756D02*
D03*
X318898Y177323D02*
D03*
X287598D02*
D03*
X335892D02*
D03*
D64*
X303150Y18307D02*
D03*
X284646D02*
D03*
D65*
X14370Y208563D02*
D03*
Y14469D02*
D03*
X337795Y13878D02*
D03*
Y208563D02*
D03*
D66*
X75197Y40650D02*
D03*
X146555Y13878D02*
D03*
X104331Y28346D02*
D03*
X79429Y27657D02*
D03*
X99803Y47736D02*
D03*
X294193Y150886D02*
D03*
X124803Y46161D02*
D03*
X111516Y14173D02*
D03*
X99213Y28839D02*
D03*
X76378Y33169D02*
D03*
X57874Y25000D02*
D03*
X159252Y77559D02*
D03*
X162205Y75590D02*
D03*
X150197Y35728D02*
D03*
X156004Y61122D02*
D03*
X123031Y87598D02*
D03*
X273721Y154035D02*
D03*
X80315Y171260D02*
D03*
X235728Y61910D02*
D03*
X193898Y91437D02*
D03*
X237795Y120177D02*
D03*
X250886Y116339D02*
D03*
X259941Y126476D02*
D03*
Y129626D02*
D03*
X190256Y59252D02*
D03*
X163976Y126181D02*
D03*
X248524Y123425D02*
D03*
D67*
X269685Y30807D02*
D03*
X263090Y102067D02*
D03*
X139075Y56398D02*
D03*
X250492Y76083D02*
D03*
X223622Y73425D02*
D03*
X205118Y103248D02*
D03*
X186221Y103347D02*
D03*
X181102Y59350D02*
D03*
X153740Y102461D02*
D03*
X162894Y102264D02*
D03*
X201279Y89370D02*
D03*
X242618Y213878D02*
D03*
X262205Y214075D02*
D03*
X216339Y118701D02*
D03*
X219094Y124902D02*
D03*
X208268Y118405D02*
D03*
X214665Y128937D02*
D03*
X215650Y184744D02*
D03*
X192815Y118898D02*
D03*
X188091Y89370D02*
D03*
X68898Y102756D02*
D03*
X211417Y41043D02*
D03*
X225787Y48524D02*
D03*
X204134Y29232D02*
D03*
X172146D02*
D03*
X180709D02*
D03*
X191831D02*
D03*
X263681Y45472D02*
D03*
X259350Y120177D02*
D03*
M02*
