G04*
G04 #@! TF.GenerationSoftware,Altium Limited,Altium Designer,18.1.9 (240)*
G04*
G04 Layer_Physical_Order=2*
G04 Layer_Color=16711680*
%FSLAX25Y25*%
%MOIN*%
G70*
G01*
G75*
%ADD12C,0.00700*%
%ADD14C,0.01000*%
%ADD17C,0.00800*%
%ADD21R,0.03150X0.03740*%
%ADD31R,0.03543X0.03740*%
%ADD35R,0.03740X0.03543*%
%ADD36R,0.03740X0.03150*%
%ADD68C,0.02000*%
%ADD69C,0.02500*%
%ADD70C,0.01200*%
%ADD72C,0.05984*%
%ADD73R,0.05984X0.05984*%
%ADD74C,0.09449*%
%ADD75C,0.09843*%
%ADD76C,0.05906*%
%ADD77R,0.05906X0.05906*%
%ADD78R,0.06890X0.06890*%
%ADD79C,0.06890*%
%ADD80C,0.13780*%
%ADD81C,0.23622*%
%ADD82C,0.02000*%
%ADD83C,0.02500*%
%ADD84R,0.02165X0.03150*%
%ADD85R,0.02559X0.06890*%
%ADD86R,0.15748X0.15748*%
%ADD87R,0.14173X0.13780*%
%ADD88R,0.03150X0.05512*%
%ADD89R,0.03937X0.07874*%
%ADD90R,0.06299X0.04724*%
%ADD91R,0.05512X0.03543*%
%ADD92R,0.03937X0.02756*%
%ADD93R,0.05709X0.04724*%
%ADD94R,0.04528X0.04724*%
%ADD95R,0.04528X0.04331*%
%ADD96R,0.02756X0.03937*%
G36*
X331571Y220360D02*
X331469Y219711D01*
X330242Y218959D01*
X328709Y217650D01*
X327399Y216116D01*
X326345Y214397D01*
X325574Y212534D01*
X325103Y210573D01*
X325023Y209563D01*
X337795D01*
Y208563D01*
X338795D01*
Y195791D01*
X339806Y195871D01*
X341766Y196341D01*
X343629Y197113D01*
X345349Y198167D01*
X346882Y199476D01*
X348192Y201010D01*
X348239Y201087D01*
X348720Y200952D01*
X348721Y21489D01*
X348239Y21354D01*
X348192Y21431D01*
X346882Y22965D01*
X345349Y24274D01*
X343629Y25328D01*
X341766Y26100D01*
X339806Y26570D01*
X338795Y26650D01*
Y13878D01*
X337795D01*
Y12878D01*
X325023D01*
X325103Y11868D01*
X325574Y9907D01*
X326345Y8044D01*
X327399Y6324D01*
X328294Y5277D01*
X328084Y4823D01*
X23525D01*
X23352Y5292D01*
X23457Y5382D01*
X24767Y6915D01*
X25820Y8634D01*
X26592Y10497D01*
X27062Y12458D01*
X27142Y13468D01*
X14370D01*
Y14469D01*
X13370D01*
Y27240D01*
X12360Y27161D01*
X10399Y26690D01*
X8536Y25918D01*
X6817Y24865D01*
X5283Y23555D01*
X3974Y22022D01*
X2920Y20303D01*
X2468Y19212D01*
X1969Y19312D01*
X1968Y203720D01*
X2468Y203819D01*
X2920Y202729D01*
X3974Y201010D01*
X5283Y199476D01*
X6817Y198167D01*
X8536Y197113D01*
X10399Y196341D01*
X12360Y195871D01*
X13370Y195791D01*
Y208563D01*
X14370D01*
Y209563D01*
X27142D01*
X27062Y210573D01*
X26592Y212534D01*
X25820Y214397D01*
X24767Y216116D01*
X23457Y217650D01*
X21924Y218959D01*
X20696Y219711D01*
X20595Y220360D01*
X20691Y220472D01*
X230791Y220472D01*
Y216382D01*
X231761D01*
Y213697D01*
X230791D01*
Y211531D01*
X234055D01*
Y210531D01*
X235055D01*
Y207366D01*
X235909D01*
Y202445D01*
X241089D01*
Y192090D01*
X241042Y192043D01*
X235299D01*
Y184138D01*
X237644D01*
Y175634D01*
X207186Y145176D01*
X206855Y144680D01*
X206738Y144095D01*
Y120090D01*
X206646Y120028D01*
X206148Y119283D01*
X205974Y118405D01*
X206148Y117528D01*
X206646Y116783D01*
X207390Y116286D01*
X207502Y116264D01*
X207453Y115764D01*
X205626D01*
Y110827D01*
X203626D01*
Y115764D01*
X200760D01*
Y118405D01*
X200604Y119186D01*
X200162Y119848D01*
X165714Y154296D01*
X165052Y154738D01*
X164272Y154894D01*
X135589D01*
X109366Y181116D01*
Y190075D01*
X91618D01*
Y172327D01*
X109366D01*
Y174695D01*
X109828Y174887D01*
X133302Y151412D01*
X133964Y150970D01*
X134744Y150815D01*
X163427D01*
X192586Y121656D01*
X192422Y121114D01*
X191937Y121017D01*
X191193Y120520D01*
X190696Y119775D01*
X190521Y118898D01*
X190696Y118020D01*
X191193Y117276D01*
X191286Y117213D01*
Y115764D01*
X176098D01*
Y110827D01*
Y105890D01*
X185106D01*
X185229Y105390D01*
X184598Y104969D01*
X184183Y104347D01*
X188258D01*
X187843Y104969D01*
X187212Y105390D01*
X187335Y105890D01*
X197191D01*
Y104445D01*
X196047D01*
Y98902D01*
X201787D01*
Y104445D01*
X200250D01*
Y105890D01*
X204303D01*
X204352Y105390D01*
X204240Y105368D01*
X203496Y104870D01*
X203080Y104248D01*
X207156D01*
X206740Y104870D01*
X205996Y105368D01*
X205884Y105390D01*
X205933Y105890D01*
X215471D01*
X217521Y103840D01*
X218017Y103508D01*
X218602Y103392D01*
X221850D01*
X222436Y103508D01*
X222932Y103840D01*
X228641Y109548D01*
X228972Y110045D01*
X228987Y110122D01*
X230331D01*
Y115862D01*
X229088D01*
Y117865D01*
X230331D01*
Y123605D01*
X229088D01*
Y125706D01*
X230035D01*
Y131158D01*
X230497Y131349D01*
X231972Y129874D01*
Y125706D01*
X237122D01*
Y132011D01*
X237584Y132202D01*
X246515Y123271D01*
X246640Y122645D01*
X247082Y121983D01*
X247169Y121925D01*
X247218Y121427D01*
X237092Y111301D01*
X236630Y111492D01*
Y111992D01*
X234858D01*
Y110122D01*
X235260D01*
X235451Y109660D01*
X212436Y86645D01*
X204543D01*
Y87122D01*
X202809D01*
Y87686D01*
X202902Y87748D01*
X203399Y88492D01*
X203574Y89370D01*
X203399Y90248D01*
X202902Y90992D01*
X202157Y91489D01*
X201279Y91664D01*
X200402Y91489D01*
X199657Y90992D01*
X199160Y90248D01*
X198985Y89370D01*
X199160Y88492D01*
X199657Y87748D01*
X199750Y87686D01*
Y87122D01*
X198803D01*
Y86645D01*
X197752D01*
Y87122D01*
X192012D01*
Y86645D01*
X191157D01*
Y87122D01*
X190582D01*
Y89173D01*
X190493Y89619D01*
X190810Y90006D01*
X192448D01*
X192456Y89995D01*
X193117Y89553D01*
X193898Y89398D01*
X194678Y89553D01*
X195340Y89995D01*
X195782Y90657D01*
X195937Y91437D01*
X195812Y92066D01*
X195783Y92212D01*
X195817Y92257D01*
X196126Y92602D01*
X196499Y92602D01*
X197917D01*
Y94374D01*
X196047D01*
Y93077D01*
X196047Y92720D01*
X195584Y92512D01*
X195340Y92879D01*
X194678Y93321D01*
X193898Y93476D01*
X193117Y93321D01*
X192734Y93065D01*
X189448D01*
X189023Y93150D01*
X181285D01*
X180700Y93033D01*
X180204Y92702D01*
X176433Y88931D01*
X124547D01*
X124473Y89040D01*
X123812Y89482D01*
X123031Y89638D01*
X122251Y89482D01*
X121590Y89040D01*
X121148Y88379D01*
X120992Y87598D01*
X121148Y86818D01*
X121590Y86156D01*
X122251Y85715D01*
X123031Y85559D01*
X123812Y85715D01*
X124048Y85872D01*
X177067D01*
X177652Y85989D01*
X178148Y86320D01*
X181919Y90091D01*
X185546D01*
X185863Y89704D01*
X185796Y89370D01*
X185971Y88492D01*
X185993Y88459D01*
Y87122D01*
X185417D01*
Y81579D01*
X191157D01*
Y82056D01*
X192012D01*
Y81579D01*
X197752D01*
Y82056D01*
X198803D01*
Y81579D01*
X204543D01*
Y82056D01*
X213386D01*
X214264Y82231D01*
X215008Y82728D01*
X248384Y116104D01*
X248926Y115939D01*
X249002Y115558D01*
X249444Y114897D01*
X250106Y114455D01*
X250886Y114299D01*
X251666Y114455D01*
X252044Y114707D01*
X262878D01*
Y114157D01*
X264139D01*
X264241Y113647D01*
X264595Y113118D01*
X266858Y110854D01*
X267388Y110501D01*
X268012Y110377D01*
X272244D01*
X272868Y110501D01*
X273398Y110854D01*
X273740Y110496D01*
X266760Y103516D01*
X266406Y102987D01*
X266282Y102362D01*
Y83791D01*
Y60728D01*
X266406Y60104D01*
X266760Y59575D01*
X277051Y49283D01*
Y45260D01*
X277502D01*
Y39509D01*
X277003Y39189D01*
X276142Y39302D01*
X275110Y39166D01*
X274148Y38768D01*
X273323Y38134D01*
X272689Y37308D01*
X272291Y36347D01*
X272155Y35315D01*
X272291Y34283D01*
X272689Y33321D01*
X273323Y32496D01*
X274148Y31862D01*
X275110Y31464D01*
X276142Y31328D01*
X277174Y31464D01*
X278135Y31862D01*
X278961Y32496D01*
X279594Y33321D01*
X279993Y34283D01*
X280129Y35315D01*
X279993Y36347D01*
X279843Y36709D01*
X280287Y37154D01*
X280641Y37683D01*
X280765Y38307D01*
Y45260D01*
X281217D01*
Y50409D01*
X280456D01*
X280287Y50661D01*
X269545Y61404D01*
Y83116D01*
X271106Y84677D01*
X271606Y84470D01*
Y78429D01*
X272173D01*
Y71768D01*
X271075D01*
Y66618D01*
X276815D01*
Y71768D01*
X276252D01*
Y78429D01*
X279906D01*
Y85154D01*
X272290D01*
X272083Y85654D01*
X274701Y88272D01*
X279906D01*
Y94996D01*
X271606D01*
Y89791D01*
X270007Y88192D01*
X269545Y88383D01*
Y101687D01*
X271144Y103286D01*
X271606Y103095D01*
Y98114D01*
X279906D01*
Y104839D01*
X273350D01*
X273159Y105300D01*
X280543Y112685D01*
X280897Y113214D01*
X281006Y113764D01*
X281610D01*
X281669Y113764D01*
X282110D01*
X282169Y113764D01*
X282832D01*
X282883Y113510D01*
X283236Y112980D01*
X290878Y105339D01*
X290671Y104839D01*
X290536Y104839D01*
X282630D01*
Y98114D01*
X290929D01*
Y104444D01*
X290929Y104580D01*
X291142Y104668D01*
X291429Y104787D01*
X292463Y103753D01*
Y88911D01*
X292001Y88719D01*
X290929Y89791D01*
Y94996D01*
X282630D01*
Y88272D01*
X287835D01*
X290453Y85654D01*
X290246Y85154D01*
X282630D01*
Y78429D01*
X286740D01*
Y71768D01*
X286571D01*
Y66618D01*
X292104Y66618D01*
X292320Y66240D01*
X292104Y65862D01*
X286571D01*
Y65327D01*
X284563D01*
Y65665D01*
X278823D01*
Y65327D01*
X276815D01*
Y65862D01*
X271075D01*
Y60713D01*
X276815D01*
Y61248D01*
X278823D01*
Y60122D01*
X284563D01*
Y61248D01*
X286571D01*
Y60713D01*
X292311Y60713D01*
X292463Y60276D01*
Y60124D01*
X283098Y50760D01*
X282864Y50409D01*
X282169D01*
Y45260D01*
X282621D01*
Y39016D01*
X282745Y38391D01*
X283098Y37862D01*
X284252Y36709D01*
X284102Y36347D01*
X283966Y35315D01*
X284102Y34283D01*
X284500Y33321D01*
X285134Y32496D01*
X285959Y31862D01*
X286921Y31464D01*
X287953Y31328D01*
X288985Y31464D01*
X289946Y31862D01*
X290772Y32496D01*
X291406Y33321D01*
X291804Y34283D01*
X291940Y35315D01*
X291804Y36347D01*
X291406Y37308D01*
X290772Y38134D01*
X289946Y38768D01*
X288985Y39166D01*
X287953Y39302D01*
X286921Y39166D01*
X286559Y39016D01*
X285883Y39691D01*
Y45260D01*
X286335D01*
Y49382D01*
X295248Y58295D01*
X295602Y58824D01*
X295726Y59449D01*
X295726Y59449D01*
Y84319D01*
Y104429D01*
X295602Y105053D01*
X295248Y105583D01*
X290822Y110009D01*
X291068Y110469D01*
X291535Y110377D01*
X296063D01*
X296687Y110501D01*
X297217Y110854D01*
X299284Y112921D01*
X299637Y113451D01*
X299660Y113567D01*
X301000D01*
Y119110D01*
X295260D01*
Y113639D01*
X292211D01*
X291669Y114181D01*
Y122653D01*
X291021D01*
Y127297D01*
X299185Y135461D01*
X299539Y135990D01*
X299663Y136614D01*
Y155413D01*
X299539Y156038D01*
X299185Y156567D01*
X292043Y163709D01*
Y171768D01*
X283154D01*
Y162878D01*
X288260D01*
X296400Y154738D01*
Y152082D01*
X295900Y151931D01*
X295635Y152328D01*
X294973Y152770D01*
X294193Y152925D01*
X293413Y152770D01*
X293035Y152517D01*
X288402D01*
Y153067D01*
X282858D01*
Y147327D01*
X283736D01*
X283890Y146827D01*
X283236Y146173D01*
X282883Y145644D01*
X282758Y145020D01*
Y144701D01*
X282169D01*
X282110Y144701D01*
X281669D01*
X281610Y144701D01*
X281021D01*
Y147327D01*
X282102D01*
Y149197D01*
X279331D01*
X276559D01*
Y147327D01*
X277758D01*
Y144701D01*
X277169D01*
X277110Y144701D01*
X276669D01*
X276610Y144701D01*
X272110D01*
Y135811D01*
X272860D01*
Y134964D01*
X269052Y131155D01*
X261252D01*
X260721Y131510D01*
X259941Y131665D01*
X259161Y131510D01*
X258499Y131068D01*
X258057Y130406D01*
X257902Y129626D01*
X258057Y128846D01*
X258344Y128416D01*
X258458Y128051D01*
X258344Y127686D01*
X258057Y127257D01*
X257902Y126476D01*
X258057Y125696D01*
X258499Y125034D01*
X259161Y124592D01*
X259941Y124437D01*
X260721Y124592D01*
X260957Y124750D01*
X262878D01*
Y123638D01*
X265748D01*
X268618D01*
Y124750D01*
X281791D01*
X282377Y124867D01*
X282873Y125198D01*
X290471Y132797D01*
X290803Y133293D01*
X290919Y133878D01*
Y135811D01*
X291669D01*
Y144701D01*
X287169D01*
X286915Y144941D01*
X286914Y144943D01*
X286847Y145201D01*
X287137Y145635D01*
X287261Y146260D01*
Y147327D01*
X288402D01*
Y149255D01*
X293035D01*
X293413Y149002D01*
X294193Y148847D01*
X294973Y149002D01*
X295635Y149444D01*
X295900Y149841D01*
X296400Y149689D01*
Y137290D01*
X288236Y129126D01*
X287883Y128597D01*
X287758Y127972D01*
Y122653D01*
X287169D01*
X287110Y122653D01*
X286669D01*
X286610Y122653D01*
X282169D01*
X282110Y122653D01*
X281669D01*
X281610Y122653D01*
X277169D01*
X277110Y122653D01*
X276669D01*
X276610Y122653D01*
X272110D01*
Y114181D01*
X271568Y113639D01*
X268939D01*
X268595Y114101D01*
X268618Y114157D01*
X268618D01*
Y119307D01*
X262878D01*
Y117970D01*
X260997D01*
X260845Y118470D01*
X260973Y118555D01*
X261470Y119299D01*
X261645Y120177D01*
X261470Y121055D01*
X260973Y121799D01*
X260228Y122297D01*
X259350Y122471D01*
X250742D01*
Y122736D01*
X250626Y123321D01*
X250561Y123418D01*
X250563Y123425D01*
X250408Y124206D01*
X249966Y124867D01*
X249304Y125309D01*
X248678Y125434D01*
X236138Y137974D01*
Y140862D01*
X230988D01*
Y135992D01*
X230511Y135782D01*
X230232Y136005D01*
Y140862D01*
X225425D01*
X225218Y141362D01*
X268132Y184276D01*
X268220Y184239D01*
X269252Y184104D01*
X270284Y184239D01*
X271245Y184638D01*
X272071Y185271D01*
X272705Y186097D01*
X273103Y187059D01*
X273239Y188091D01*
X273103Y189122D01*
X272705Y190084D01*
X272071Y190910D01*
X271245Y191543D01*
X270284Y191942D01*
X269252Y192077D01*
X268220Y191942D01*
X267756Y191749D01*
X265801Y193704D01*
Y202445D01*
X270980D01*
Y207486D01*
X271146Y207917D01*
X274000D01*
Y210279D01*
X271146D01*
Y208813D01*
X270980Y208382D01*
X260049D01*
X259858Y208844D01*
X262941Y211927D01*
X263083Y211955D01*
X263827Y212453D01*
X264324Y213197D01*
X264499Y214075D01*
X264324Y214953D01*
X263827Y215697D01*
X263083Y216194D01*
X262205Y216369D01*
X261327Y216194D01*
X260583Y215697D01*
X260085Y214953D01*
X260057Y214811D01*
X254168Y208922D01*
X253807Y208382D01*
X248085D01*
X248030Y208463D01*
X244240Y212253D01*
X244240Y212256D01*
X244656Y212878D01*
X242618D01*
Y213878D01*
X241618D01*
Y215916D01*
X240996Y215500D01*
X240934Y215407D01*
X236349D01*
Y216382D01*
X237319D01*
Y220472D01*
X271342Y220472D01*
Y218783D01*
X272917D01*
Y217791D01*
X278854D01*
Y218783D01*
Y220472D01*
X331475Y220472D01*
X331571Y220360D01*
D02*
G37*
G36*
X247949Y202445D02*
X249750D01*
Y192391D01*
X249374Y192061D01*
X249252Y192077D01*
X248220Y191942D01*
X247258Y191543D01*
X246433Y190910D01*
X245799Y190084D01*
X245401Y189122D01*
X245265Y188091D01*
X245401Y187059D01*
X245799Y186097D01*
X246433Y185271D01*
X247258Y184638D01*
X247683Y184462D01*
Y180063D01*
X210297Y142676D01*
X209797Y142884D01*
Y143461D01*
X240255Y173919D01*
X240586Y174415D01*
X240703Y175000D01*
Y184138D01*
X243205D01*
Y189880D01*
X243700Y190375D01*
X244031Y190871D01*
X244147Y191457D01*
Y202445D01*
X245949D01*
Y205413D01*
X247949D01*
Y202445D01*
D02*
G37*
G36*
X258412Y191967D02*
X258220Y191942D01*
X257259Y191543D01*
X256433Y190910D01*
X255799Y190084D01*
X255401Y189122D01*
X255265Y188091D01*
X255401Y187059D01*
X255799Y186097D01*
X256433Y185271D01*
X257148Y184723D01*
X257285Y184152D01*
X213584Y140452D01*
X213252Y139955D01*
X213250Y139943D01*
X212750Y139992D01*
Y140804D01*
X250294Y178348D01*
X250626Y178844D01*
X250742Y179429D01*
Y184429D01*
X251245Y184638D01*
X252071Y185271D01*
X252705Y186097D01*
X253103Y187059D01*
X253239Y188091D01*
X253103Y189122D01*
X252770Y189925D01*
X252809Y190118D01*
Y202445D01*
X258412D01*
Y191967D01*
D02*
G37*
G36*
X280390Y135811D02*
X281610D01*
X281669Y135811D01*
X282110D01*
X282169Y135811D01*
X286610D01*
X286669Y135811D01*
X287110D01*
X287169Y135811D01*
X287860D01*
Y134511D01*
X281158Y127809D01*
X270566D01*
X270414Y128309D01*
X270766Y128544D01*
X275471Y133249D01*
X275803Y133745D01*
X275919Y134331D01*
Y135811D01*
X276610D01*
X276669Y135811D01*
X277110D01*
X277169Y135811D01*
X278390D01*
Y140256D01*
X280390D01*
Y135811D01*
D02*
G37*
G36*
X262742Y193071D02*
X262859Y192486D01*
X263190Y191990D01*
X265593Y189586D01*
X265401Y189122D01*
X265265Y188091D01*
X265401Y187059D01*
X265749Y186219D01*
X218013Y138483D01*
X217682Y137987D01*
X217565Y137402D01*
Y126586D01*
X217472Y126524D01*
X216975Y125779D01*
X216800Y124902D01*
X216975Y124024D01*
X217472Y123279D01*
X218217Y122782D01*
X219094Y122608D01*
X219972Y122782D01*
X220717Y123279D01*
X221214Y124024D01*
X221389Y124902D01*
X221214Y125779D01*
X220717Y126524D01*
X220624Y126586D01*
Y136768D01*
X224583Y140727D01*
X225083Y140520D01*
Y135122D01*
X226724D01*
X228167Y133680D01*
X227975Y133218D01*
X224886D01*
Y125706D01*
X226030D01*
Y123605D01*
X224787D01*
Y117865D01*
X226030D01*
Y115862D01*
X224787D01*
Y110122D01*
X224787Y110122D01*
X224787D01*
X224514Y109748D01*
X221217Y106451D01*
X219406D01*
Y115764D01*
X209083D01*
X209034Y116264D01*
X209146Y116286D01*
X209890Y116783D01*
X210387Y117528D01*
X210562Y118405D01*
X210387Y119283D01*
X209890Y120028D01*
X209797Y120090D01*
Y122372D01*
X210297Y122579D01*
X214066Y118810D01*
X214044Y118701D01*
X214219Y117823D01*
X214716Y117079D01*
X215461Y116581D01*
X216339Y116407D01*
X217216Y116581D01*
X217961Y117079D01*
X218458Y117823D01*
X218633Y118701D01*
X218458Y119579D01*
X217961Y120323D01*
X217216Y120820D01*
X216339Y120995D01*
X216229Y120973D01*
X212750Y124452D01*
Y126922D01*
X213250Y127177D01*
X213787Y126818D01*
X214665Y126643D01*
X215543Y126818D01*
X216287Y127315D01*
X216785Y128059D01*
X216959Y128937D01*
X216785Y129815D01*
X216287Y130559D01*
X216195Y130621D01*
Y138737D01*
X260530Y183072D01*
X260862Y183568D01*
X260978Y184153D01*
Y184527D01*
X261245Y184638D01*
X262071Y185271D01*
X262705Y186097D01*
X263103Y187059D01*
X263239Y188091D01*
X263103Y189122D01*
X262705Y190084D01*
X262071Y190910D01*
X261470Y191371D01*
Y202445D01*
X262742D01*
Y193071D01*
D02*
G37*
%LPC*%
G36*
X243618Y215916D02*
Y214878D01*
X244656D01*
X244240Y215500D01*
X243618Y215916D01*
D02*
G37*
G36*
X278854Y215791D02*
X272917D01*
Y214642D01*
X271146D01*
Y212280D01*
X278854D01*
Y214413D01*
Y215791D01*
D02*
G37*
G36*
X174622Y214336D02*
Y209484D01*
X179473D01*
X179458Y209645D01*
X179119Y210761D01*
X178569Y211790D01*
X177829Y212691D01*
X176928Y213431D01*
X175899Y213981D01*
X174783Y214320D01*
X174622Y214336D01*
D02*
G37*
G36*
X154622D02*
Y209484D01*
X159474D01*
X159458Y209645D01*
X159119Y210761D01*
X158569Y211790D01*
X157829Y212691D01*
X156928Y213431D01*
X155899Y213981D01*
X154783Y214320D01*
X154622Y214336D01*
D02*
G37*
G36*
X172622Y214336D02*
X172461Y214320D01*
X171345Y213981D01*
X170317Y213431D01*
X169415Y212691D01*
X168675Y211790D01*
X168125Y210761D01*
X167787Y209645D01*
X167771Y209484D01*
X172622D01*
Y214336D01*
D02*
G37*
G36*
X152622D02*
X152461Y214320D01*
X151345Y213981D01*
X150317Y213431D01*
X149415Y212691D01*
X148675Y211790D01*
X148125Y210761D01*
X147786Y209645D01*
X147771Y209484D01*
X152622D01*
Y214336D01*
D02*
G37*
G36*
X278854Y210279D02*
X276000D01*
Y207917D01*
X278854D01*
Y210279D01*
D02*
G37*
G36*
X233055Y209531D02*
X230791D01*
Y207366D01*
X233055D01*
Y209531D01*
D02*
G37*
G36*
X179473Y207484D02*
X174622D01*
Y202633D01*
X174783Y202649D01*
X175899Y202987D01*
X176928Y203537D01*
X177829Y204277D01*
X178569Y205179D01*
X179119Y206207D01*
X179458Y207324D01*
X179473Y207484D01*
D02*
G37*
G36*
X159474D02*
X154622D01*
Y202633D01*
X154783Y202649D01*
X155899Y202987D01*
X156928Y203537D01*
X157829Y204277D01*
X158569Y205179D01*
X159119Y206207D01*
X159458Y207324D01*
X159474Y207484D01*
D02*
G37*
G36*
X172622D02*
X167771D01*
X167787Y207324D01*
X168125Y206207D01*
X168675Y205179D01*
X169415Y204277D01*
X170317Y203537D01*
X171345Y202987D01*
X172461Y202649D01*
X172622Y202633D01*
Y207484D01*
D02*
G37*
G36*
X152622D02*
X147771D01*
X147786Y207324D01*
X148125Y206207D01*
X148675Y205179D01*
X149415Y204277D01*
X150317Y203537D01*
X151345Y202987D01*
X152461Y202649D01*
X152622Y202633D01*
Y207484D01*
D02*
G37*
G36*
X336795Y207563D02*
X325023D01*
X325103Y206553D01*
X325574Y204592D01*
X326345Y202729D01*
X327399Y201010D01*
X328709Y199476D01*
X330242Y198167D01*
X331961Y197113D01*
X333824Y196341D01*
X335785Y195871D01*
X336795Y195791D01*
Y207563D01*
D02*
G37*
G36*
X27142D02*
X15370D01*
Y195791D01*
X16380Y195871D01*
X18341Y196341D01*
X20204Y197113D01*
X21924Y198167D01*
X23457Y199476D01*
X24767Y201010D01*
X25820Y202729D01*
X26592Y204592D01*
X27062Y206553D01*
X27142Y207563D01*
D02*
G37*
G36*
X174622Y194336D02*
Y189484D01*
X179473D01*
X179458Y189645D01*
X179119Y190761D01*
X178569Y191790D01*
X177829Y192692D01*
X176928Y193431D01*
X175899Y193981D01*
X174783Y194320D01*
X174622Y194336D01*
D02*
G37*
G36*
X154622D02*
Y189484D01*
X159474D01*
X159458Y189645D01*
X159119Y190761D01*
X158569Y191790D01*
X157829Y192692D01*
X156928Y193431D01*
X155899Y193981D01*
X154783Y194320D01*
X154622Y194336D01*
D02*
G37*
G36*
X172622Y194336D02*
X172461Y194320D01*
X171345Y193981D01*
X170317Y193431D01*
X169415Y192692D01*
X168675Y191790D01*
X168125Y190761D01*
X167787Y189645D01*
X167771Y189484D01*
X172622D01*
Y194336D01*
D02*
G37*
G36*
X152622D02*
X152461Y194320D01*
X151345Y193981D01*
X150317Y193431D01*
X149415Y192692D01*
X148675Y191790D01*
X148125Y190761D01*
X147786Y189645D01*
X147771Y189484D01*
X152622D01*
Y194336D01*
D02*
G37*
G36*
X216650Y186782D02*
Y185744D01*
X217688D01*
X217272Y186366D01*
X216650Y186782D01*
D02*
G37*
G36*
X214650D02*
X214027Y186366D01*
X213612Y185744D01*
X214650D01*
Y186782D01*
D02*
G37*
G36*
X217688Y183744D02*
X216650D01*
Y182706D01*
X217272Y183122D01*
X217688Y183744D01*
D02*
G37*
G36*
X214650D02*
X213612D01*
X214027Y183122D01*
X214650Y182706D01*
Y183744D01*
D02*
G37*
G36*
X179473Y187484D02*
X174622D01*
Y182633D01*
X174783Y182649D01*
X175899Y182987D01*
X176928Y183537D01*
X177829Y184277D01*
X178569Y185179D01*
X179119Y186207D01*
X179458Y187323D01*
X179473Y187484D01*
D02*
G37*
G36*
X159474D02*
X154622D01*
Y182633D01*
X154783Y182649D01*
X155899Y182987D01*
X156928Y183537D01*
X157829Y184277D01*
X158569Y185179D01*
X159119Y186207D01*
X159458Y187323D01*
X159474Y187484D01*
D02*
G37*
G36*
X172622D02*
X167771D01*
X167787Y187323D01*
X168125Y186207D01*
X168675Y185179D01*
X169415Y184277D01*
X170317Y183537D01*
X171345Y182987D01*
X172461Y182649D01*
X172622Y182633D01*
Y187484D01*
D02*
G37*
G36*
X152622D02*
X147771D01*
X147786Y187323D01*
X148125Y186207D01*
X148675Y185179D01*
X149415Y184277D01*
X150317Y183537D01*
X151345Y182987D01*
X152461Y182649D01*
X152622Y182633D01*
Y187484D01*
D02*
G37*
G36*
X140075Y189091D02*
X132988D01*
Y182201D01*
X140075D01*
Y189091D01*
D02*
G37*
G36*
X130988D02*
X123902D01*
Y182201D01*
X130988D01*
Y189091D01*
D02*
G37*
G36*
X77083D02*
X69996D01*
Y182201D01*
X77083D01*
Y189091D01*
D02*
G37*
G36*
X67996D02*
X60909D01*
Y182201D01*
X67996D01*
Y189091D01*
D02*
G37*
G36*
X336892Y181674D02*
Y178323D01*
X340244D01*
X340223Y178483D01*
X339775Y179564D01*
X339062Y180493D01*
X338134Y181205D01*
X337053Y181653D01*
X336892Y181674D01*
D02*
G37*
G36*
X334892Y181674D02*
X334732Y181653D01*
X333651Y181205D01*
X332722Y180493D01*
X332010Y179564D01*
X331562Y178483D01*
X331541Y178323D01*
X334892D01*
Y181674D01*
D02*
G37*
G36*
X140075Y180201D02*
X132988D01*
Y173311D01*
X140075D01*
Y180201D01*
D02*
G37*
G36*
X130988D02*
X123902D01*
Y173311D01*
X130988D01*
Y180201D01*
D02*
G37*
G36*
X77083Y180201D02*
X69996D01*
Y173311D01*
X77083D01*
Y180201D01*
D02*
G37*
G36*
X67996D02*
X60909D01*
Y173311D01*
X67996D01*
Y180201D01*
D02*
G37*
G36*
X340244Y176323D02*
X336892D01*
Y172971D01*
X337053Y172992D01*
X338134Y173440D01*
X339062Y174153D01*
X339775Y175081D01*
X340223Y176163D01*
X340244Y176323D01*
D02*
G37*
G36*
X334892D02*
X331541D01*
X331562Y176163D01*
X332010Y175081D01*
X332722Y174153D01*
X333651Y173440D01*
X334732Y172992D01*
X334892Y172971D01*
Y176323D01*
D02*
G37*
G36*
X318898Y181806D02*
X317737Y181653D01*
X316656Y181205D01*
X315727Y180493D01*
X315015Y179564D01*
X314567Y178483D01*
X314414Y177323D01*
X314567Y176163D01*
X315015Y175081D01*
X315727Y174153D01*
X316656Y173440D01*
X317737Y172992D01*
X318898Y172840D01*
X320058Y172992D01*
X321139Y173440D01*
X322068Y174153D01*
X322780Y175081D01*
X323228Y176163D01*
X323381Y177323D01*
X323228Y178483D01*
X322780Y179564D01*
X322068Y180493D01*
X321139Y181205D01*
X320058Y181653D01*
X318898Y181806D01*
D02*
G37*
G36*
X287598D02*
X286438Y181653D01*
X285357Y181205D01*
X284428Y180493D01*
X283716Y179564D01*
X283268Y178483D01*
X283115Y177323D01*
X283268Y176163D01*
X283716Y175081D01*
X284428Y174153D01*
X285357Y173440D01*
X286438Y172992D01*
X287598Y172840D01*
X288759Y172992D01*
X289840Y173440D01*
X290769Y174153D01*
X291481Y175081D01*
X291929Y176163D01*
X292082Y177323D01*
X291929Y178483D01*
X291481Y179564D01*
X290769Y180493D01*
X289840Y181205D01*
X288759Y181653D01*
X287598Y181806D01*
D02*
G37*
G36*
X81315Y172997D02*
Y172260D01*
X82052D01*
X81757Y172702D01*
X81315Y172997D01*
D02*
G37*
G36*
X79315D02*
X78873Y172702D01*
X78578Y172260D01*
X79315D01*
Y172997D01*
D02*
G37*
G36*
X82052Y170260D02*
X81315D01*
Y169523D01*
X81757Y169818D01*
X82052Y170260D01*
D02*
G37*
G36*
X79315D02*
X78578D01*
X78873Y169818D01*
X79315Y169523D01*
Y170260D01*
D02*
G37*
G36*
X219406Y178756D02*
X211531D01*
Y173819D01*
Y168882D01*
X219406D01*
Y178756D01*
D02*
G37*
G36*
X209531D02*
X170193D01*
Y173819D01*
Y168882D01*
X209531D01*
Y173819D01*
Y178756D01*
D02*
G37*
G36*
X163480Y204400D02*
X161986Y204203D01*
X160593Y203626D01*
X159398Y202709D01*
X158480Y201513D01*
X157903Y200120D01*
X157706Y198626D01*
X157903Y197132D01*
X158480Y195739D01*
X159398Y194543D01*
X160593Y193626D01*
X161248Y193354D01*
Y178756D01*
X160319D01*
Y168882D01*
X168193D01*
Y173819D01*
Y178756D01*
X165327D01*
Y193195D01*
X166367Y193626D01*
X167563Y194543D01*
X168481Y195739D01*
X169057Y197132D01*
X169254Y198626D01*
X169057Y200120D01*
X168481Y201513D01*
X167563Y202709D01*
X166367Y203626D01*
X164975Y204203D01*
X163480Y204400D01*
D02*
G37*
G36*
X340337Y171768D02*
X336892D01*
Y168323D01*
X340337D01*
Y171768D01*
D02*
G37*
G36*
X334892D02*
X331448D01*
Y168323D01*
X334892D01*
Y171768D01*
D02*
G37*
G36*
X340337Y166323D02*
X336892D01*
Y162878D01*
X340337D01*
Y166323D01*
D02*
G37*
G36*
X334892D02*
X331448D01*
Y162878D01*
X334892D01*
Y166323D01*
D02*
G37*
G36*
X323342Y171768D02*
X314453D01*
Y162878D01*
X323342D01*
Y171768D01*
D02*
G37*
G36*
X274721Y155773D02*
Y155035D01*
X275458D01*
X275162Y155477D01*
X274721Y155773D01*
D02*
G37*
G36*
X272721D02*
X272278Y155477D01*
X271983Y155035D01*
X272721D01*
Y155773D01*
D02*
G37*
G36*
X275458Y153035D02*
X274721D01*
Y152298D01*
X275162Y152594D01*
X275458Y153035D01*
D02*
G37*
G36*
X272721D02*
X271983D01*
X272278Y152594D01*
X272721Y152298D01*
Y153035D01*
D02*
G37*
G36*
X282102Y153067D02*
X280331D01*
Y151197D01*
X282102D01*
Y153067D01*
D02*
G37*
G36*
X278331D02*
X276559D01*
X276559Y153065D01*
Y151197D01*
X278331D01*
Y153067D01*
D02*
G37*
G36*
X335827Y157239D02*
X334666Y157086D01*
X333585Y156639D01*
X332657Y155926D01*
X331944Y154998D01*
X331496Y153916D01*
X331344Y152756D01*
X331496Y151596D01*
X331944Y150514D01*
X332657Y149586D01*
X333585Y148873D01*
X334666Y148425D01*
X335827Y148273D01*
X336987Y148425D01*
X338068Y148873D01*
X338997Y149586D01*
X339709Y150514D01*
X340157Y151596D01*
X340310Y152756D01*
X340157Y153916D01*
X339709Y154998D01*
X338997Y155926D01*
X338068Y156639D01*
X336987Y157086D01*
X335827Y157239D01*
D02*
G37*
G36*
X97244Y148613D02*
X96202Y148476D01*
X95231Y148074D01*
X94397Y147434D01*
X93757Y146600D01*
X93578Y146167D01*
X93037D01*
X92857Y146600D01*
X92217Y147434D01*
X91383Y148074D01*
X90412Y148476D01*
X89370Y148613D01*
X88328Y148476D01*
X87357Y148074D01*
X86523Y147434D01*
X85883Y146600D01*
X85704Y146167D01*
X85163D01*
X84983Y146600D01*
X84343Y147434D01*
X83509Y148074D01*
X82538Y148476D01*
X81496Y148613D01*
X80454Y148476D01*
X79483Y148074D01*
X78649Y147434D01*
X78009Y146600D01*
X77830Y146167D01*
X77288D01*
X77109Y146600D01*
X76469Y147434D01*
X75635Y148074D01*
X74664Y148476D01*
X73622Y148613D01*
X72580Y148476D01*
X71609Y148074D01*
X70775Y147434D01*
X70135Y146600D01*
X69956Y146167D01*
X69414D01*
X69235Y146600D01*
X68595Y147434D01*
X67761Y148074D01*
X66790Y148476D01*
X65748Y148613D01*
X64706Y148476D01*
X63735Y148074D01*
X62901Y147434D01*
X62261Y146600D01*
X62082Y146167D01*
X61540D01*
X61361Y146600D01*
X60721Y147434D01*
X59887Y148074D01*
X58916Y148476D01*
X57874Y148613D01*
X56832Y148476D01*
X55861Y148074D01*
X55027Y147434D01*
X54387Y146600D01*
X54208Y146167D01*
X53666D01*
X53487Y146600D01*
X52847Y147434D01*
X52013Y148074D01*
X51042Y148476D01*
X50000Y148613D01*
X48958Y148476D01*
X47987Y148074D01*
X47153Y147434D01*
X46513Y146600D01*
X46334Y146167D01*
X45792D01*
X45613Y146600D01*
X44973Y147434D01*
X44139Y148074D01*
X43168Y148476D01*
X42126Y148613D01*
X41084Y148476D01*
X40113Y148074D01*
X39279Y147434D01*
X38744Y146737D01*
X38244Y146907D01*
Y148579D01*
X30260D01*
Y140594D01*
X38244D01*
Y142266D01*
X38744Y142436D01*
X39279Y141739D01*
X40113Y141100D01*
X41084Y140697D01*
X42126Y140560D01*
X43168Y140697D01*
X44139Y141100D01*
X44973Y141739D01*
X45613Y142573D01*
X45792Y143006D01*
X46334D01*
X46513Y142573D01*
X47153Y141739D01*
X47987Y141100D01*
X48958Y140697D01*
X50000Y140560D01*
X51042Y140697D01*
X52013Y141100D01*
X52847Y141739D01*
X53487Y142573D01*
X53666Y143006D01*
X54208D01*
X54387Y142573D01*
X55027Y141739D01*
X55861Y141100D01*
X56832Y140697D01*
X57874Y140560D01*
X58916Y140697D01*
X59400Y140898D01*
X78938Y121360D01*
X79434Y121028D01*
X80020Y120912D01*
X97398D01*
X118839Y99471D01*
X118811Y99434D01*
X118413Y98473D01*
X118277Y97441D01*
X118413Y96409D01*
X118811Y95447D01*
X119445Y94622D01*
X120270Y93988D01*
X121232Y93590D01*
X122264Y93454D01*
X123296Y93590D01*
X124257Y93988D01*
X125083Y94622D01*
X125716Y95447D01*
X126115Y96409D01*
X126251Y97441D01*
X126115Y98473D01*
X125716Y99434D01*
X125083Y100260D01*
X124257Y100894D01*
X123296Y101292D01*
X122264Y101428D01*
X121330Y101305D01*
X99113Y123522D01*
X98617Y123854D01*
X98032Y123970D01*
X80653D01*
X64299Y140325D01*
X64582Y140749D01*
X64706Y140697D01*
X65748Y140560D01*
X66790Y140697D01*
X67761Y141100D01*
X68595Y141739D01*
X69235Y142573D01*
X69414Y143006D01*
X69956D01*
X70135Y142573D01*
X70775Y141739D01*
X71609Y141100D01*
X72580Y140697D01*
X73622Y140560D01*
X74664Y140697D01*
X75635Y141100D01*
X76469Y141739D01*
X77109Y142573D01*
X77288Y143006D01*
X77830D01*
X78009Y142573D01*
X78649Y141739D01*
X79483Y141100D01*
X80454Y140697D01*
X81496Y140560D01*
X82538Y140697D01*
X83509Y141100D01*
X84343Y141739D01*
X84983Y142573D01*
X85163Y143006D01*
X85704D01*
X85883Y142573D01*
X86523Y141739D01*
X87357Y141100D01*
X88328Y140697D01*
X89370Y140560D01*
X90412Y140697D01*
X91383Y141100D01*
X92217Y141739D01*
X92857Y142573D01*
X93037Y143006D01*
X93578D01*
X93757Y142573D01*
X94397Y141739D01*
X95231Y141100D01*
X96202Y140697D01*
X97244Y140560D01*
X98286Y140697D01*
X99257Y141100D01*
X100091Y141739D01*
X100731Y142573D01*
X100910Y143006D01*
X101452D01*
X101631Y142573D01*
X102271Y141739D01*
X103105Y141100D01*
X104076Y140697D01*
X104118Y140692D01*
Y144587D01*
Y148482D01*
X104076Y148476D01*
X103105Y148074D01*
X102271Y147434D01*
X101631Y146600D01*
X101452Y146167D01*
X100910D01*
X100731Y146600D01*
X100091Y147434D01*
X99257Y148074D01*
X98286Y148476D01*
X97244Y148613D01*
D02*
G37*
G36*
X106118Y148482D02*
Y145587D01*
X109013D01*
X109008Y145629D01*
X108605Y146600D01*
X107965Y147434D01*
X107131Y148074D01*
X106160Y148476D01*
X106118Y148482D01*
D02*
G37*
G36*
X109013Y143587D02*
X106118D01*
Y140692D01*
X106160Y140697D01*
X107131Y141100D01*
X107965Y141739D01*
X108605Y142573D01*
X109008Y143544D01*
X109013Y143587D01*
D02*
G37*
G36*
X340272Y147201D02*
X331382D01*
Y138311D01*
X340272D01*
Y147201D01*
D02*
G37*
G36*
X148819Y147101D02*
X147659Y146949D01*
X146577Y146501D01*
X145649Y145788D01*
X144936Y144860D01*
X144488Y143779D01*
X144336Y142618D01*
X144488Y141458D01*
X144936Y140376D01*
X145649Y139448D01*
X146577Y138735D01*
X147659Y138288D01*
X148819Y138135D01*
X149979Y138288D01*
X151060Y138735D01*
X151989Y139448D01*
X152701Y140376D01*
X153149Y141458D01*
X153302Y142618D01*
X153149Y143779D01*
X152701Y144860D01*
X151989Y145788D01*
X151060Y146501D01*
X149979Y146949D01*
X148819Y147101D01*
D02*
G37*
G36*
X153264Y137063D02*
X144374D01*
Y128173D01*
X153264D01*
Y131089D01*
X162615D01*
X165601Y128102D01*
X165282Y127714D01*
X164757Y128065D01*
X163976Y128220D01*
X163196Y128065D01*
X162534Y127623D01*
X162092Y126962D01*
X161937Y126181D01*
X162092Y125401D01*
X162447Y124870D01*
Y115764D01*
X160319D01*
Y105890D01*
X174098D01*
Y110827D01*
Y115764D01*
X171411D01*
Y125984D01*
X171295Y126569D01*
X170963Y127066D01*
X164330Y133700D01*
X163833Y134031D01*
X163248Y134148D01*
X153264D01*
Y137063D01*
D02*
G37*
G36*
X328248Y126349D02*
X327216Y126213D01*
X326255Y125815D01*
X325429Y125181D01*
X324830Y124401D01*
X317929D01*
Y125606D01*
X312189D01*
Y120063D01*
X317929D01*
Y120323D01*
X324830D01*
X325429Y119543D01*
X326255Y118910D01*
X327216Y118511D01*
X328248Y118375D01*
X329280Y118511D01*
X330241Y118910D01*
X331067Y119543D01*
X331701Y120369D01*
X332099Y121330D01*
X332235Y122362D01*
X332099Y123394D01*
X331701Y124356D01*
X331067Y125181D01*
X330241Y125815D01*
X329280Y126213D01*
X328248Y126349D01*
D02*
G37*
G36*
X301000Y125409D02*
X299130D01*
Y123638D01*
X301000D01*
Y125409D01*
D02*
G37*
G36*
X297130D02*
X295260D01*
Y123638D01*
X297130D01*
Y125409D01*
D02*
G37*
G36*
X232858Y123605D02*
X231087D01*
Y121735D01*
X232858D01*
Y123605D01*
D02*
G37*
G36*
X238795Y121914D02*
Y121177D01*
X239532D01*
X239237Y121619D01*
X238795Y121914D01*
D02*
G37*
G36*
X268618Y121638D02*
X266748D01*
Y120063D01*
X268618D01*
Y121638D01*
D02*
G37*
G36*
X264748D02*
X262878D01*
Y120063D01*
X264748D01*
Y121638D01*
D02*
G37*
G36*
X301000D02*
X299130D01*
Y119866D01*
X301000D01*
Y121638D01*
D02*
G37*
G36*
X297130D02*
X295260D01*
Y119866D01*
X297130D01*
Y121638D01*
D02*
G37*
G36*
X239532Y119177D02*
X238795D01*
Y118440D01*
X239237Y118735D01*
X239532Y119177D01*
D02*
G37*
G36*
X236630Y123605D02*
X234858D01*
Y120735D01*
Y117865D01*
X236630D01*
Y117995D01*
X236795Y118086D01*
Y120177D01*
Y122268D01*
X236630Y122360D01*
Y123605D01*
D02*
G37*
G36*
X232858Y119735D02*
X231087D01*
Y117865D01*
X232858D01*
Y119735D01*
D02*
G37*
G36*
X317929Y119307D02*
X316059D01*
Y117535D01*
X317929D01*
Y119307D01*
D02*
G37*
G36*
X314059D02*
X312189D01*
Y117535D01*
X314059D01*
Y119307D01*
D02*
G37*
G36*
X236630Y115862D02*
X234858D01*
Y113992D01*
X236630D01*
Y115862D01*
D02*
G37*
G36*
X232858D02*
X231087D01*
Y113992D01*
X232858D01*
Y115862D01*
D02*
G37*
G36*
X317929Y115535D02*
X316059D01*
Y113764D01*
X317929D01*
Y115535D01*
D02*
G37*
G36*
X314059D02*
X312189D01*
Y113764D01*
X314059D01*
Y115535D01*
D02*
G37*
G36*
X329248Y116217D02*
Y113362D01*
X332103D01*
X332099Y113394D01*
X331701Y114356D01*
X331067Y115181D01*
X330241Y115815D01*
X329280Y116213D01*
X329248Y116217D01*
D02*
G37*
G36*
X327248Y116217D02*
X327216Y116213D01*
X326255Y115815D01*
X325429Y115181D01*
X324795Y114356D01*
X324397Y113394D01*
X324393Y113362D01*
X327248D01*
Y116217D01*
D02*
G37*
G36*
X232858Y111992D02*
X231087D01*
Y110122D01*
X232858D01*
Y111992D01*
D02*
G37*
G36*
X317831Y111827D02*
X315961D01*
Y110055D01*
X317831D01*
Y111827D01*
D02*
G37*
G36*
X313961D02*
X312090D01*
Y110055D01*
X313961D01*
Y111827D01*
D02*
G37*
G36*
X327248Y111362D02*
X324393D01*
X324397Y111330D01*
X324795Y110369D01*
X325429Y109543D01*
X326255Y108909D01*
X327216Y108511D01*
X327248Y108507D01*
Y111362D01*
D02*
G37*
G36*
X332103D02*
X329248D01*
Y108507D01*
X329280Y108511D01*
X330241Y108909D01*
X331067Y109543D01*
X331701Y110369D01*
X332099Y111330D01*
X332103Y111362D01*
D02*
G37*
G36*
X317831Y108055D02*
X315961D01*
Y106283D01*
X317831D01*
Y108055D01*
D02*
G37*
G36*
X313961D02*
X312090D01*
Y106283D01*
X313961D01*
Y108055D01*
D02*
G37*
G36*
X328248Y106349D02*
X327216Y106213D01*
X326255Y105815D01*
X325429Y105181D01*
X324830Y104401D01*
X317831D01*
Y105528D01*
X312090D01*
Y99984D01*
X317831D01*
Y100323D01*
X324830D01*
X325429Y99543D01*
X326255Y98909D01*
X327216Y98511D01*
X328248Y98375D01*
X329280Y98511D01*
X330241Y98909D01*
X331067Y99543D01*
X331701Y100369D01*
X332099Y101330D01*
X332235Y102362D01*
X332099Y103394D01*
X331701Y104356D01*
X331067Y105181D01*
X330241Y105815D01*
X329280Y106213D01*
X328248Y106349D01*
D02*
G37*
G36*
X69898Y104794D02*
Y103756D01*
X70935D01*
X70520Y104378D01*
X69898Y104794D01*
D02*
G37*
G36*
X67898D02*
X67276Y104378D01*
X66860Y103756D01*
X67898D01*
Y104794D01*
D02*
G37*
G36*
X264090Y104105D02*
Y103067D01*
X265128D01*
X264713Y103689D01*
X264090Y104105D01*
D02*
G37*
G36*
X262090D02*
X261468Y103689D01*
X261053Y103067D01*
X262090D01*
Y104105D01*
D02*
G37*
G36*
X188258Y102347D02*
X187221D01*
Y101309D01*
X187843Y101724D01*
X188258Y102347D01*
D02*
G37*
G36*
X185221D02*
X184183D01*
X184598Y101724D01*
X185221Y101309D01*
Y102347D01*
D02*
G37*
G36*
X207156Y102248D02*
X206118D01*
Y101210D01*
X206740Y101626D01*
X207156Y102248D01*
D02*
G37*
G36*
X204118D02*
X203080D01*
X203496Y101626D01*
X204118Y101210D01*
Y102248D01*
D02*
G37*
G36*
X70935Y101756D02*
X69898D01*
Y100718D01*
X70520Y101134D01*
X70935Y101756D01*
D02*
G37*
G36*
X67898D02*
X66860D01*
X67276Y101134D01*
X67898Y100718D01*
Y101756D01*
D02*
G37*
G36*
X265128Y101067D02*
X264090D01*
Y100029D01*
X264713Y100445D01*
X265128Y101067D01*
D02*
G37*
G36*
X262090D02*
X261053D01*
X261468Y100445D01*
X262090Y100029D01*
Y101067D01*
D02*
G37*
G36*
X153740Y104755D02*
X152862Y104580D01*
X152118Y104083D01*
X151621Y103339D01*
X151446Y102461D01*
X151621Y101583D01*
X152118Y100838D01*
X152862Y100341D01*
X153740Y100166D01*
X154618Y100341D01*
X155362Y100838D01*
X155424Y100931D01*
X161078D01*
X161272Y100642D01*
X162016Y100144D01*
X162894Y99970D01*
X163772Y100144D01*
X164516Y100642D01*
X165013Y101386D01*
X165188Y102264D01*
X165013Y103142D01*
X164516Y103886D01*
X163772Y104383D01*
X162894Y104558D01*
X162016Y104383D01*
X161427Y103990D01*
X155424D01*
X155362Y104083D01*
X154618Y104580D01*
X153740Y104755D01*
D02*
G37*
G36*
X201787Y98146D02*
X199917D01*
Y96374D01*
X201787D01*
Y98146D01*
D02*
G37*
G36*
X197917D02*
X196047D01*
Y96374D01*
X197917D01*
Y98146D01*
D02*
G37*
G36*
X86216Y101394D02*
X78311D01*
Y93488D01*
X86216D01*
Y101394D01*
D02*
G37*
G36*
X112264Y101428D02*
X111232Y101292D01*
X110270Y100894D01*
X109445Y100260D01*
X108811Y99434D01*
X108413Y98473D01*
X108277Y97441D01*
X108413Y96409D01*
X108811Y95447D01*
X109445Y94622D01*
X110270Y93988D01*
X111232Y93590D01*
X112264Y93454D01*
X113296Y93590D01*
X114257Y93988D01*
X115083Y94622D01*
X115717Y95447D01*
X116115Y96409D01*
X116251Y97441D01*
X116115Y98473D01*
X115717Y99434D01*
X115083Y100260D01*
X114257Y100894D01*
X113296Y101292D01*
X112264Y101428D01*
D02*
G37*
G36*
X102264D02*
X101232Y101292D01*
X100270Y100894D01*
X99445Y100260D01*
X98811Y99434D01*
X98413Y98473D01*
X98277Y97441D01*
X98413Y96409D01*
X98811Y95447D01*
X99445Y94622D01*
X100270Y93988D01*
X101232Y93590D01*
X102264Y93454D01*
X103296Y93590D01*
X104257Y93988D01*
X105083Y94622D01*
X105717Y95447D01*
X106115Y96409D01*
X106251Y97441D01*
X106115Y98473D01*
X105717Y99434D01*
X105083Y100260D01*
X104257Y100894D01*
X103296Y101292D01*
X102264Y101428D01*
D02*
G37*
G36*
X92264D02*
X91232Y101292D01*
X90270Y100894D01*
X89445Y100260D01*
X88811Y99434D01*
X88413Y98473D01*
X88277Y97441D01*
X88413Y96409D01*
X88811Y95447D01*
X89445Y94622D01*
X90270Y93988D01*
X91232Y93590D01*
X92264Y93454D01*
X93296Y93590D01*
X94257Y93988D01*
X95083Y94622D01*
X95717Y95447D01*
X96115Y96409D01*
X96251Y97441D01*
X96115Y98473D01*
X95717Y99434D01*
X95083Y100260D01*
X94257Y100894D01*
X93296Y101292D01*
X92264Y101428D01*
D02*
G37*
G36*
X201787Y94374D02*
X199917D01*
Y92602D01*
X201787D01*
Y94374D01*
D02*
G37*
G36*
X204543Y80823D02*
X202673D01*
Y79051D01*
X204543D01*
Y80823D01*
D02*
G37*
G36*
X200673D02*
X198803D01*
Y79051D01*
X200673D01*
Y80823D01*
D02*
G37*
G36*
X197752D02*
X195882D01*
Y79051D01*
X197752D01*
Y80823D01*
D02*
G37*
G36*
X193882D02*
X192012D01*
Y79051D01*
X193882D01*
Y80823D01*
D02*
G37*
G36*
X191157D02*
X189287D01*
Y79051D01*
X191157D01*
Y80823D01*
D02*
G37*
G36*
X187287D02*
X185417D01*
Y79051D01*
X187287D01*
Y80823D01*
D02*
G37*
G36*
X251492Y78121D02*
Y77083D01*
X252530D01*
X252114Y77705D01*
X251492Y78121D01*
D02*
G37*
G36*
X249492D02*
X248870Y77705D01*
X248454Y77083D01*
X249492D01*
Y78121D01*
D02*
G37*
G36*
X204543Y77051D02*
X202673D01*
Y75279D01*
X204543D01*
Y77051D01*
D02*
G37*
G36*
X200673D02*
X198803D01*
Y75279D01*
X200673D01*
Y77051D01*
D02*
G37*
G36*
X197752D02*
X195882D01*
Y75279D01*
X197752D01*
Y77051D01*
D02*
G37*
G36*
X193882D02*
X192012D01*
Y75279D01*
X193882D01*
Y77051D01*
D02*
G37*
G36*
X191157D02*
X189287D01*
Y75279D01*
X191157D01*
Y77051D01*
D02*
G37*
G36*
X187287D02*
X185417D01*
Y75279D01*
X187287D01*
Y77051D01*
D02*
G37*
G36*
X224622Y75463D02*
Y74425D01*
X225660D01*
X225244Y75047D01*
X224622Y75463D01*
D02*
G37*
G36*
X222622D02*
X222000Y75047D01*
X221584Y74425D01*
X222622D01*
Y75463D01*
D02*
G37*
G36*
X252530Y75083D02*
X251492D01*
Y74045D01*
X252114Y74461D01*
X252530Y75083D01*
D02*
G37*
G36*
X249492D02*
X248454D01*
X248870Y74461D01*
X249492Y74045D01*
Y75083D01*
D02*
G37*
G36*
X225660Y72425D02*
X224622D01*
Y71387D01*
X225244Y71803D01*
X225660Y72425D01*
D02*
G37*
G36*
X222622D02*
X221584D01*
X222000Y71803D01*
X222622Y71387D01*
Y72425D01*
D02*
G37*
G36*
X284563Y71965D02*
X282693D01*
Y70193D01*
X284563D01*
Y71965D01*
D02*
G37*
G36*
X280693D02*
X278823D01*
Y70193D01*
X280693D01*
Y71965D01*
D02*
G37*
G36*
X284563Y68193D02*
X282693D01*
Y66421D01*
X284563D01*
Y68193D01*
D02*
G37*
G36*
X280693D02*
X278823D01*
Y66421D01*
X280693D01*
Y68193D01*
D02*
G37*
G36*
X182102Y61388D02*
Y60350D01*
X183140D01*
X182724Y60973D01*
X182102Y61388D01*
D02*
G37*
G36*
X180102D02*
X179480Y60973D01*
X179065Y60350D01*
X180102D01*
Y61388D01*
D02*
G37*
G36*
X191256Y60989D02*
Y60252D01*
X191993D01*
X191698Y60694D01*
X191256Y60989D01*
D02*
G37*
G36*
X189256D02*
X188814Y60694D01*
X188519Y60252D01*
X189256D01*
Y60989D01*
D02*
G37*
G36*
X105118Y61999D02*
X104076Y61862D01*
X103105Y61460D01*
X102271Y60820D01*
X101631Y59986D01*
X101452Y59553D01*
X100910D01*
X100731Y59986D01*
X100091Y60820D01*
X99257Y61460D01*
X98286Y61862D01*
X97244Y61999D01*
X96202Y61862D01*
X95231Y61460D01*
X94397Y60820D01*
X93757Y59986D01*
X93578Y59553D01*
X93037D01*
X92857Y59986D01*
X92217Y60820D01*
X91383Y61460D01*
X90412Y61862D01*
X89370Y61999D01*
X88328Y61862D01*
X87357Y61460D01*
X86523Y60820D01*
X85883Y59986D01*
X85704Y59553D01*
X85163D01*
X84983Y59986D01*
X84343Y60820D01*
X83509Y61460D01*
X82538Y61862D01*
X81496Y61999D01*
X80454Y61862D01*
X79483Y61460D01*
X78649Y60820D01*
X78009Y59986D01*
X77830Y59553D01*
X77288D01*
X77109Y59986D01*
X76469Y60820D01*
X75635Y61460D01*
X74664Y61862D01*
X73622Y61999D01*
X72580Y61862D01*
X71609Y61460D01*
X70775Y60820D01*
X70135Y59986D01*
X69956Y59553D01*
X69414D01*
X69235Y59986D01*
X68595Y60820D01*
X67761Y61460D01*
X66790Y61862D01*
X65748Y61999D01*
X64706Y61862D01*
X63735Y61460D01*
X62901Y60820D01*
X62261Y59986D01*
X62082Y59553D01*
X61540D01*
X61361Y59986D01*
X60721Y60820D01*
X59887Y61460D01*
X58916Y61862D01*
X57874Y61999D01*
X56832Y61862D01*
X55861Y61460D01*
X55027Y60820D01*
X54387Y59986D01*
X54208Y59553D01*
X53666D01*
X53487Y59986D01*
X52847Y60820D01*
X52013Y61460D01*
X51042Y61862D01*
X50000Y61999D01*
X48958Y61862D01*
X47987Y61460D01*
X47153Y60820D01*
X46513Y59986D01*
X46334Y59553D01*
X45792D01*
X45613Y59986D01*
X44973Y60820D01*
X44139Y61460D01*
X43168Y61862D01*
X42126Y61999D01*
X41084Y61862D01*
X40113Y61460D01*
X39279Y60820D01*
X38639Y59986D01*
X38460Y59553D01*
X37918D01*
X37739Y59986D01*
X37099Y60820D01*
X36265Y61460D01*
X35294Y61862D01*
X34252Y61999D01*
X33210Y61862D01*
X32239Y61460D01*
X31405Y60820D01*
X30765Y59986D01*
X30363Y59015D01*
X30225Y57973D01*
X30363Y56930D01*
X30765Y55959D01*
X31405Y55125D01*
X32239Y54485D01*
X33210Y54083D01*
X34252Y53946D01*
X35294Y54083D01*
X36265Y54485D01*
X37099Y55125D01*
X37739Y55959D01*
X37918Y56392D01*
X38460D01*
X38639Y55959D01*
X39279Y55125D01*
X40113Y54485D01*
X41084Y54083D01*
X42126Y53946D01*
X43168Y54083D01*
X44139Y54485D01*
X44973Y55125D01*
X45613Y55959D01*
X45792Y56392D01*
X46334D01*
X46513Y55959D01*
X47153Y55125D01*
X47987Y54485D01*
X48958Y54083D01*
X50000Y53946D01*
X51042Y54083D01*
X52013Y54485D01*
X52847Y55125D01*
X53487Y55959D01*
X53666Y56392D01*
X54208D01*
X54387Y55959D01*
X55027Y55125D01*
X55861Y54485D01*
X56832Y54083D01*
X57874Y53946D01*
X58916Y54083D01*
X59887Y54485D01*
X60721Y55125D01*
X61361Y55959D01*
X61540Y56392D01*
X62082D01*
X62261Y55959D01*
X62901Y55125D01*
X63735Y54485D01*
X64706Y54083D01*
X65748Y53946D01*
X66790Y54083D01*
X67761Y54485D01*
X68595Y55125D01*
X69235Y55959D01*
X69414Y56392D01*
X69956D01*
X70135Y55959D01*
X70775Y55125D01*
X71609Y54485D01*
X72580Y54083D01*
X73622Y53946D01*
X74664Y54083D01*
X75635Y54485D01*
X76469Y55125D01*
X77109Y55959D01*
X77288Y56392D01*
X77830D01*
X78009Y55959D01*
X78649Y55125D01*
X79483Y54485D01*
X80454Y54083D01*
X81496Y53946D01*
X82538Y54083D01*
X83509Y54485D01*
X84343Y55125D01*
X84983Y55959D01*
X85163Y56392D01*
X85704D01*
X85883Y55959D01*
X86523Y55125D01*
X87357Y54485D01*
X88328Y54083D01*
X89370Y53946D01*
X90412Y54083D01*
X91383Y54485D01*
X92217Y55125D01*
X92857Y55959D01*
X93037Y56392D01*
X93578D01*
X93757Y55959D01*
X94397Y55125D01*
X95231Y54485D01*
X96202Y54083D01*
X97244Y53946D01*
X98286Y54083D01*
X99257Y54485D01*
X100091Y55125D01*
X100731Y55959D01*
X100910Y56392D01*
X101452D01*
X101631Y55959D01*
X102271Y55125D01*
X103105Y54485D01*
X104076Y54083D01*
X105118Y53946D01*
X106160Y54083D01*
X107131Y54485D01*
X107965Y55125D01*
X108605Y55959D01*
X109008Y56930D01*
X109145Y57973D01*
X109008Y59015D01*
X108605Y59986D01*
X107965Y60820D01*
X107131Y61460D01*
X106160Y61862D01*
X105118Y61999D01*
D02*
G37*
G36*
X191993Y58252D02*
X191256D01*
Y57515D01*
X191698Y57810D01*
X191993Y58252D01*
D02*
G37*
G36*
X189256D02*
X188519D01*
X188814Y57810D01*
X189256Y57515D01*
Y58252D01*
D02*
G37*
G36*
X140075Y58435D02*
Y57398D01*
X141113D01*
X140697Y58020D01*
X140075Y58435D01*
D02*
G37*
G36*
X138075D02*
X137453Y58020D01*
X137037Y57398D01*
X138075D01*
Y58435D01*
D02*
G37*
G36*
X183140Y58350D02*
X182102D01*
Y57313D01*
X182724Y57728D01*
X183140Y58350D01*
D02*
G37*
G36*
X180102D02*
X179065D01*
X179480Y57728D01*
X180102Y57313D01*
Y58350D01*
D02*
G37*
G36*
X283776Y58874D02*
X282693D01*
Y57299D01*
X283776D01*
Y58874D01*
D02*
G37*
G36*
X280693D02*
X279610D01*
Y57299D01*
X280693D01*
Y58874D01*
D02*
G37*
G36*
X141113Y55398D02*
X140075D01*
Y54360D01*
X140697Y54776D01*
X141113Y55398D01*
D02*
G37*
G36*
X138075D02*
X137037D01*
X137453Y54776D01*
X138075Y54360D01*
Y55398D01*
D02*
G37*
G36*
X283776Y55299D02*
X282693D01*
Y53724D01*
X283776D01*
Y55299D01*
D02*
G37*
G36*
X280693D02*
X279610D01*
Y53724D01*
X280693D01*
Y55299D01*
D02*
G37*
G36*
X235728Y63949D02*
X234948Y63793D01*
X234286Y63351D01*
X233844Y62690D01*
X233689Y61910D01*
X233844Y61129D01*
X234097Y60751D01*
Y53642D01*
X234221Y53017D01*
X234575Y52488D01*
X235882Y51181D01*
X235690Y50719D01*
X226282D01*
X225787Y50818D01*
X224909Y50643D01*
X224165Y50146D01*
X223668Y49402D01*
X223493Y48524D01*
X223668Y47646D01*
X224165Y46902D01*
X224264Y46803D01*
X225008Y46306D01*
X225886Y46131D01*
X239995D01*
X240851Y45274D01*
X240618Y44801D01*
X239921Y44892D01*
X238889Y44756D01*
X237928Y44358D01*
X237102Y43725D01*
X236469Y42899D01*
X236070Y41937D01*
X235934Y40905D01*
X236070Y39874D01*
X236469Y38912D01*
X237102Y38086D01*
X237928Y37453D01*
X238889Y37054D01*
X239921Y36919D01*
X240953Y37054D01*
X241915Y37453D01*
X242740Y38086D01*
X243374Y38912D01*
X243772Y39874D01*
X243908Y40905D01*
X243816Y41602D01*
X244290Y41836D01*
X245969Y40157D01*
Y36953D01*
X253874D01*
Y38611D01*
X259114D01*
X259992Y38786D01*
X260736Y39283D01*
X265303Y43850D01*
X265801Y44594D01*
X265975Y45472D01*
X265801Y46350D01*
X265303Y47095D01*
X264559Y47592D01*
X263681Y47767D01*
X262803Y47592D01*
X262059Y47095D01*
X258164Y43200D01*
X253874D01*
Y44858D01*
X247756D01*
X242567Y50047D01*
X241823Y50545D01*
X240961Y50716D01*
X237360Y54317D01*
Y60751D01*
X237612Y61129D01*
X237768Y61910D01*
X237612Y62690D01*
X237170Y63351D01*
X236509Y63793D01*
X235728Y63949D01*
D02*
G37*
G36*
X99803Y49775D02*
X99023Y49620D01*
X98361Y49178D01*
X98286Y49065D01*
X79921D01*
X79921Y49065D01*
X79375Y48957D01*
X78912Y48647D01*
X78912Y48647D01*
X74187Y43923D01*
X73878Y43460D01*
X73769Y42913D01*
X73769Y42913D01*
Y42101D01*
X73755Y42092D01*
X73313Y41430D01*
X73158Y40650D01*
X73313Y39869D01*
X73755Y39208D01*
X74417Y38766D01*
X75197Y38610D01*
X75977Y38766D01*
X76639Y39208D01*
X77081Y39869D01*
X77236Y40650D01*
X77081Y41430D01*
X76639Y42092D01*
X76833Y42531D01*
X80512Y46210D01*
X98487D01*
X99023Y45852D01*
X99803Y45697D01*
X100584Y45852D01*
X101245Y46294D01*
X101687Y46956D01*
X101842Y47736D01*
X101687Y48517D01*
X101245Y49178D01*
X100584Y49620D01*
X99803Y49775D01*
D02*
G37*
G36*
X125803Y47899D02*
Y47161D01*
X126540D01*
X126245Y47603D01*
X125803Y47899D01*
D02*
G37*
G36*
X123803D02*
X123361Y47603D01*
X123066Y47161D01*
X123803D01*
Y47899D01*
D02*
G37*
G36*
X126540Y45161D02*
X125803D01*
Y44424D01*
X126245Y44719D01*
X126540Y45161D01*
D02*
G37*
G36*
X123803D02*
X123066D01*
X123361Y44719D01*
X123803Y44424D01*
Y45161D01*
D02*
G37*
G36*
X229921Y44892D02*
X228889Y44756D01*
X227928Y44358D01*
X227102Y43725D01*
X226468Y42899D01*
X226070Y41937D01*
X225934Y40905D01*
X226070Y39874D01*
X226468Y38912D01*
X227102Y38086D01*
X227928Y37453D01*
X228889Y37054D01*
X229921Y36919D01*
X230953Y37054D01*
X231915Y37453D01*
X232740Y38086D01*
X233374Y38912D01*
X233772Y39874D01*
X233908Y40905D01*
X233772Y41937D01*
X233374Y42899D01*
X232740Y43725D01*
X231915Y44358D01*
X230953Y44756D01*
X229921Y44892D01*
D02*
G37*
G36*
X219921D02*
X218889Y44756D01*
X217928Y44358D01*
X217102Y43725D01*
X216469Y42899D01*
X216070Y41937D01*
X215934Y40905D01*
X216070Y39874D01*
X216469Y38912D01*
X217102Y38086D01*
X217928Y37453D01*
X218889Y37054D01*
X219921Y36919D01*
X220953Y37054D01*
X221915Y37453D01*
X222740Y38086D01*
X223374Y38912D01*
X223772Y39874D01*
X223908Y40905D01*
X223772Y41937D01*
X223374Y42899D01*
X222740Y43725D01*
X221915Y44358D01*
X220953Y44756D01*
X219921Y44892D01*
D02*
G37*
G36*
X300764Y39170D02*
Y36315D01*
X303619D01*
X303615Y36347D01*
X303217Y37308D01*
X302583Y38134D01*
X301757Y38768D01*
X300796Y39166D01*
X300764Y39170D01*
D02*
G37*
G36*
X298764D02*
X298732Y39166D01*
X297770Y38768D01*
X296945Y38134D01*
X296311Y37308D01*
X295913Y36347D01*
X295909Y36315D01*
X298764D01*
Y39170D01*
D02*
G37*
G36*
X77378Y34907D02*
Y34169D01*
X78115D01*
X77820Y34611D01*
X77378Y34907D01*
D02*
G37*
G36*
X75378D02*
X74936Y34611D01*
X74641Y34169D01*
X75378D01*
Y34907D01*
D02*
G37*
G36*
X159252Y79598D02*
X158472Y79443D01*
X157810Y79001D01*
X157368Y78339D01*
X157244Y77714D01*
X154922Y75393D01*
X154591Y74896D01*
X154474Y74311D01*
Y62433D01*
X154120Y61902D01*
X153965Y61122D01*
X154120Y60342D01*
X154562Y59680D01*
X155224Y59238D01*
X156004Y59083D01*
X156352Y59152D01*
X156738Y58835D01*
Y44433D01*
X150042Y37737D01*
X149416Y37612D01*
X148755Y37170D01*
X148313Y36509D01*
X148158Y35728D01*
X148313Y34948D01*
X148755Y34286D01*
X149416Y33844D01*
X150197Y33689D01*
X150977Y33844D01*
X151639Y34286D01*
X152081Y34948D01*
X152205Y35574D01*
X159349Y42718D01*
X159681Y43214D01*
X159797Y43799D01*
Y70922D01*
X162482Y73606D01*
X162985Y73707D01*
X163647Y74149D01*
X164089Y74810D01*
X164244Y75590D01*
X164089Y76371D01*
X163647Y77033D01*
X162985Y77474D01*
X162205Y77630D01*
X161766Y77542D01*
X161386Y77556D01*
X161222Y77905D01*
X161136Y78339D01*
X160694Y79001D01*
X160032Y79443D01*
X159252Y79598D01*
D02*
G37*
G36*
X220921Y34761D02*
Y31905D01*
X223777D01*
X223772Y31937D01*
X223374Y32899D01*
X222740Y33725D01*
X221915Y34358D01*
X220953Y34756D01*
X220921Y34761D01*
D02*
G37*
G36*
X218921Y34761D02*
X218889Y34756D01*
X217928Y34358D01*
X217102Y33725D01*
X216469Y32899D01*
X216070Y31937D01*
X216066Y31905D01*
X218921D01*
Y34761D01*
D02*
G37*
G36*
X303619Y34315D02*
X300764D01*
Y31460D01*
X300796Y31464D01*
X301757Y31862D01*
X302583Y32496D01*
X303217Y33321D01*
X303615Y34283D01*
X303619Y34315D01*
D02*
G37*
G36*
X298764D02*
X295909D01*
X295913Y34283D01*
X296311Y33321D01*
X296945Y32496D01*
X297770Y31862D01*
X298732Y31464D01*
X298764Y31460D01*
Y34315D01*
D02*
G37*
G36*
X78115Y32169D02*
X77378D01*
Y31432D01*
X77820Y31727D01*
X78115Y32169D01*
D02*
G37*
G36*
X75378D02*
X74641D01*
X74936Y31727D01*
X75378Y31432D01*
Y32169D01*
D02*
G37*
G36*
X311575Y39302D02*
X310543Y39166D01*
X309581Y38768D01*
X308756Y38134D01*
X308122Y37308D01*
X307724Y36347D01*
X307588Y35315D01*
X307724Y34283D01*
X308122Y33321D01*
X308756Y32496D01*
X309581Y31862D01*
X310543Y31464D01*
X311575Y31328D01*
X312607Y31464D01*
X313568Y31862D01*
X314394Y32496D01*
X315027Y33321D01*
X315426Y34283D01*
X315562Y35315D01*
X315426Y36347D01*
X315027Y37308D01*
X314394Y38134D01*
X313568Y38768D01*
X312607Y39166D01*
X311575Y39302D01*
D02*
G37*
G36*
X205134Y31270D02*
Y30232D01*
X206172D01*
X205756Y30854D01*
X205134Y31270D01*
D02*
G37*
G36*
X203134D02*
X202512Y30854D01*
X202096Y30232D01*
X203134D01*
Y31270D01*
D02*
G37*
G36*
X192831D02*
Y30232D01*
X193869D01*
X193453Y30854D01*
X192831Y31270D01*
D02*
G37*
G36*
X190831D02*
X190208Y30854D01*
X189793Y30232D01*
X190831D01*
Y31270D01*
D02*
G37*
G36*
X173146D02*
Y30232D01*
X174183D01*
X173768Y30854D01*
X173146Y31270D01*
D02*
G37*
G36*
X171146D02*
X170524Y30854D01*
X170108Y30232D01*
X171146D01*
Y31270D01*
D02*
G37*
G36*
X100213Y30576D02*
Y29839D01*
X100950D01*
X100654Y30281D01*
X100213Y30576D01*
D02*
G37*
G36*
X98213D02*
X97771Y30281D01*
X97475Y29839D01*
X98213D01*
Y30576D01*
D02*
G37*
G36*
X249921Y34892D02*
X248889Y34756D01*
X247928Y34358D01*
X247102Y33725D01*
X246468Y32899D01*
X246070Y31937D01*
X245934Y30906D01*
X246070Y29874D01*
X246468Y28912D01*
X247102Y28086D01*
X247928Y27453D01*
X248889Y27055D01*
X249921Y26919D01*
X250953Y27055D01*
X251915Y27453D01*
X252740Y28086D01*
X253263Y28768D01*
X268687D01*
X268807Y28688D01*
X269685Y28513D01*
X270563Y28688D01*
X271307Y29185D01*
X271804Y29929D01*
X271979Y30807D01*
X271804Y31685D01*
X271307Y32429D01*
X270563Y32926D01*
X269685Y33101D01*
X268807Y32926D01*
X268687Y32846D01*
X253396D01*
X253374Y32899D01*
X252740Y33725D01*
X251915Y34358D01*
X250953Y34756D01*
X249921Y34892D01*
D02*
G37*
G36*
X206172Y28232D02*
X205134D01*
Y27194D01*
X205756Y27610D01*
X206172Y28232D01*
D02*
G37*
G36*
X203134D02*
X202096D01*
X202512Y27610D01*
X203134Y27194D01*
Y28232D01*
D02*
G37*
G36*
X193869D02*
X192831D01*
Y27194D01*
X193453Y27610D01*
X193869Y28232D01*
D02*
G37*
G36*
X190831D02*
X189793D01*
X190208Y27610D01*
X190831Y27194D01*
Y28232D01*
D02*
G37*
G36*
X174183D02*
X173146D01*
Y27194D01*
X173768Y27610D01*
X174183Y28232D01*
D02*
G37*
G36*
X171146D02*
X170108D01*
X170524Y27610D01*
X171146Y27194D01*
Y28232D01*
D02*
G37*
G36*
X223777Y29906D02*
X220921D01*
Y27050D01*
X220953Y27055D01*
X221915Y27453D01*
X222740Y28086D01*
X223374Y28912D01*
X223772Y29874D01*
X223777Y29906D01*
D02*
G37*
G36*
X218921D02*
X216066D01*
X216070Y29874D01*
X216469Y28912D01*
X217102Y28086D01*
X217928Y27453D01*
X218889Y27055D01*
X218921Y27050D01*
Y29906D01*
D02*
G37*
G36*
X239921Y34892D02*
X238889Y34756D01*
X237928Y34358D01*
X237102Y33725D01*
X236469Y32899D01*
X236070Y31937D01*
X235934Y30906D01*
X236070Y29874D01*
X236469Y28912D01*
X237102Y28086D01*
X237928Y27453D01*
X238889Y27055D01*
X239921Y26919D01*
X240953Y27055D01*
X241915Y27453D01*
X242740Y28086D01*
X243374Y28912D01*
X243772Y29874D01*
X243908Y30906D01*
X243772Y31937D01*
X243374Y32899D01*
X242740Y33725D01*
X241915Y34358D01*
X240953Y34756D01*
X239921Y34892D01*
D02*
G37*
G36*
X229921D02*
X228889Y34756D01*
X227928Y34358D01*
X227102Y33725D01*
X226468Y32899D01*
X226070Y31937D01*
X225934Y30906D01*
X226070Y29874D01*
X226468Y28912D01*
X227102Y28086D01*
X227928Y27453D01*
X228889Y27055D01*
X229921Y26919D01*
X230953Y27055D01*
X231915Y27453D01*
X232740Y28086D01*
X233374Y28912D01*
X233772Y29874D01*
X233908Y30906D01*
X233772Y31937D01*
X233374Y32899D01*
X232740Y33725D01*
X231915Y34358D01*
X230953Y34756D01*
X229921Y34892D01*
D02*
G37*
G36*
X104331Y30386D02*
X103550Y30230D01*
X102889Y29788D01*
X102447Y29127D01*
X102292Y28346D01*
X102295Y28329D01*
X100677Y26711D01*
X100574Y26741D01*
X100489Y27286D01*
X100654Y27397D01*
X100950Y27839D01*
X97475D01*
X97771Y27397D01*
X98326Y27026D01*
X98220Y26526D01*
X82579D01*
X81465Y27640D01*
X81468Y27657D01*
X81313Y28438D01*
X80871Y29099D01*
X80209Y29541D01*
X79429Y29697D01*
X78649Y29541D01*
X77987Y29099D01*
X77545Y28438D01*
X77390Y27657D01*
X77545Y26877D01*
X77987Y26216D01*
X78649Y25774D01*
X79429Y25618D01*
X79446Y25622D01*
X80979Y24089D01*
X80979Y24089D01*
X81442Y23780D01*
X81988Y23671D01*
X101083D01*
X101083Y23671D01*
X101629Y23780D01*
X102092Y24089D01*
X104314Y26311D01*
X104331Y26307D01*
X105111Y26463D01*
X105773Y26904D01*
X106215Y27566D01*
X106370Y28346D01*
X106215Y29127D01*
X105773Y29788D01*
X105111Y30230D01*
X104331Y30386D01*
D02*
G37*
G36*
X58874Y26737D02*
Y26000D01*
X59611D01*
X59316Y26442D01*
X58874Y26737D01*
D02*
G37*
G36*
X56874D02*
X56432Y26442D01*
X56137Y26000D01*
X56874D01*
Y26737D01*
D02*
G37*
G36*
X211417Y43337D02*
X210539Y43163D01*
X209795Y42665D01*
X209298Y41921D01*
X209123Y41043D01*
X209298Y40165D01*
X209786Y39435D01*
Y30105D01*
X204639Y24958D01*
X187290D01*
X183000Y29248D01*
X182828Y30110D01*
X182331Y30854D01*
X181587Y31352D01*
X180709Y31526D01*
X179831Y31352D01*
X179086Y30854D01*
X178589Y30110D01*
X178415Y29232D01*
X178589Y28354D01*
X179086Y27610D01*
X179831Y27113D01*
X180692Y26941D01*
X185461Y22173D01*
X185990Y21820D01*
X186614Y21695D01*
X205315D01*
X205939Y21820D01*
X206469Y22173D01*
X212571Y28276D01*
X212925Y28805D01*
X213049Y29429D01*
Y39435D01*
X213537Y40165D01*
X213711Y41043D01*
X213537Y41921D01*
X213039Y42665D01*
X212295Y43163D01*
X211417Y43337D01*
D02*
G37*
G36*
X59611Y24000D02*
X58874D01*
Y23263D01*
X59316Y23558D01*
X59611Y24000D01*
D02*
G37*
G36*
X56874D02*
X56137D01*
X56432Y23558D01*
X56874Y23263D01*
Y24000D01*
D02*
G37*
G36*
X15370Y27240D02*
Y15469D01*
X27142D01*
X27062Y16479D01*
X26592Y18440D01*
X25820Y20303D01*
X24767Y22022D01*
X23457Y23555D01*
X21924Y24865D01*
X20204Y25918D01*
X18341Y26690D01*
X16380Y27161D01*
X15370Y27240D01*
D02*
G37*
G36*
X112516Y15910D02*
Y15173D01*
X113253D01*
X112958Y15615D01*
X112516Y15910D01*
D02*
G37*
G36*
X110516D02*
X110074Y15615D01*
X109778Y15173D01*
X110516D01*
Y15910D01*
D02*
G37*
G36*
X336795Y26650D02*
X335785Y26570D01*
X333824Y26100D01*
X331961Y25328D01*
X330242Y24274D01*
X328709Y22965D01*
X327399Y21431D01*
X326345Y19712D01*
X325574Y17849D01*
X325103Y15888D01*
X325023Y14878D01*
X336795D01*
Y26650D01*
D02*
G37*
G36*
X147555Y15615D02*
Y14878D01*
X148292D01*
X147997Y15320D01*
X147555Y15615D01*
D02*
G37*
G36*
X145555D02*
X145113Y15320D01*
X144818Y14878D01*
X145555D01*
Y15615D01*
D02*
G37*
G36*
X113253Y13173D02*
X112516D01*
Y12436D01*
X112958Y12731D01*
X113253Y13173D01*
D02*
G37*
G36*
X110516D02*
X109778D01*
X110074Y12731D01*
X110516Y12436D01*
Y13173D01*
D02*
G37*
G36*
X148292Y12878D02*
X147555D01*
Y12141D01*
X147997Y12436D01*
X148292Y12878D01*
D02*
G37*
G36*
X145555D02*
X144818D01*
X145113Y12436D01*
X145555Y12141D01*
Y12878D01*
D02*
G37*
G36*
X303150Y26235D02*
X301603Y26083D01*
X300116Y25631D01*
X298745Y24899D01*
X297544Y23913D01*
X296558Y22712D01*
X295825Y21341D01*
X295374Y19854D01*
X295222Y18307D01*
X295374Y16760D01*
X295825Y15273D01*
X296558Y13903D01*
X297544Y12701D01*
X298745Y11715D01*
X300116Y10983D01*
X301603Y10531D01*
X303150Y10379D01*
X304696Y10531D01*
X306184Y10983D01*
X307554Y11715D01*
X308755Y12701D01*
X309741Y13903D01*
X310474Y15273D01*
X310925Y16760D01*
X311077Y18307D01*
X310925Y19854D01*
X310474Y21341D01*
X309741Y22712D01*
X308755Y23913D01*
X307554Y24899D01*
X306184Y25631D01*
X304696Y26083D01*
X303150Y26235D01*
D02*
G37*
G36*
X284646D02*
X283099Y26083D01*
X281612Y25631D01*
X280241Y24899D01*
X279040Y23913D01*
X278054Y22712D01*
X277321Y21341D01*
X276870Y19854D01*
X276718Y18307D01*
X276870Y16760D01*
X277321Y15273D01*
X278054Y13903D01*
X279040Y12701D01*
X280241Y11715D01*
X281612Y10983D01*
X283099Y10531D01*
X284646Y10379D01*
X286192Y10531D01*
X287680Y10983D01*
X289050Y11715D01*
X290252Y12701D01*
X291237Y13903D01*
X291970Y15273D01*
X292421Y16760D01*
X292574Y18307D01*
X292421Y19854D01*
X291970Y21341D01*
X291237Y22712D01*
X290252Y23913D01*
X289050Y24899D01*
X287680Y25631D01*
X286192Y26083D01*
X284646Y26235D01*
D02*
G37*
%LPD*%
G36*
X168352Y125351D02*
Y115764D01*
X165506D01*
Y124870D01*
X165860Y125401D01*
X166016Y126181D01*
X165860Y126962D01*
X165509Y127487D01*
X165898Y127806D01*
X168352Y125351D01*
D02*
G37*
D12*
X-142163Y88643D02*
Y84645D01*
X-140164D01*
X-139497Y85311D01*
Y85977D01*
X-140164Y86644D01*
X-142163D01*
X-140164D01*
X-139497Y87310D01*
Y87977D01*
X-140164Y88643D01*
X-142163D01*
X-137498Y84645D02*
X-136165D01*
X-135498Y85311D01*
Y86644D01*
X-136165Y87310D01*
X-137498D01*
X-138164Y86644D01*
Y85311D01*
X-137498Y84645D01*
X-133499Y87977D02*
Y87310D01*
X-134165D01*
X-132833D01*
X-133499D01*
Y85311D01*
X-132833Y84645D01*
X-130167Y87977D02*
Y87310D01*
X-130833D01*
X-129500D01*
X-130167D01*
Y85311D01*
X-129500Y84645D01*
X-126834D02*
X-125502D01*
X-124835Y85311D01*
Y86644D01*
X-125502Y87310D01*
X-126834D01*
X-127501Y86644D01*
Y85311D01*
X-126834Y84645D01*
X-123502D02*
Y87310D01*
X-122836D01*
X-122169Y86644D01*
Y84645D01*
Y86644D01*
X-121503Y87310D01*
X-120836Y86644D01*
Y84645D01*
X-115505Y88643D02*
Y84645D01*
X-112839D01*
X-110840Y87310D02*
X-109507D01*
X-108840Y86644D01*
Y84645D01*
X-110840D01*
X-111506Y85311D01*
X-110840Y85977D01*
X-108840D01*
X-107507Y87310D02*
Y85311D01*
X-106841Y84645D01*
X-104841D01*
Y83978D01*
X-105508Y83312D01*
X-106174D01*
X-104841Y84645D02*
Y87310D01*
X-101509Y84645D02*
X-102842D01*
X-103509Y85311D01*
Y86644D01*
X-102842Y87310D01*
X-101509D01*
X-100843Y86644D01*
Y85977D01*
X-103509D01*
X-99510Y87310D02*
Y84645D01*
Y85977D01*
X-98843Y86644D01*
X-98177Y87310D01*
X-97511D01*
D14*
X239173Y187795D02*
X240551Y189173D01*
X156004Y74311D02*
X159252Y77559D01*
X158268Y71555D02*
X162106Y75394D01*
X158268Y43799D02*
Y71555D01*
X150197Y35728D02*
X158268Y43799D01*
X156004Y61122D02*
Y74311D01*
X122835Y87402D02*
X177067D01*
X122835D02*
X122835D01*
X123031Y87598D01*
X122835Y87402D02*
X122835Y87402D01*
X122835D02*
X122835Y87402D01*
X123031Y87598D02*
Y87598D01*
X177067Y87402D02*
X181285Y91620D01*
X189023D01*
X234055Y214469D02*
X234646Y213878D01*
X242618D01*
X189107Y91535D02*
X193307D01*
X189023Y91620D02*
X189107Y91535D01*
X162697Y102461D02*
X162894Y102264D01*
X153740Y102461D02*
X162697D01*
X201279Y84744D02*
Y89370D01*
Y84744D02*
X201673Y84350D01*
X198721Y101870D02*
Y110827D01*
Y101870D02*
X198917Y101673D01*
X246949Y205413D02*
Y207382D01*
X242618Y211713D02*
X246949Y207382D01*
X242618Y211713D02*
Y213878D01*
X264272Y193071D02*
X269252Y188091D01*
X264272Y193071D02*
Y205413D01*
X257874Y189173D02*
X259449Y187598D01*
X259252Y188091D02*
X259941Y188779D01*
Y205413D01*
X249213Y179429D02*
Y189173D01*
X249252Y188091D02*
X251279Y190118D01*
Y205413D01*
X239252Y188091D02*
X242618Y191457D01*
Y205413D01*
X239173Y175000D02*
Y187795D01*
X208268Y144095D02*
X239173Y175000D01*
X259449Y184153D02*
Y187598D01*
X214665Y139370D02*
X259449Y184153D01*
X269252Y187559D02*
Y188091D01*
X219094Y137402D02*
X269252Y187559D01*
X259941Y126279D02*
X281791D01*
X218602Y104921D02*
X221850D01*
X216437Y107087D02*
X218602Y104921D01*
X216437Y107087D02*
Y110827D01*
X221850Y104921D02*
X227559Y110630D01*
X216437Y110827D02*
Y111713D01*
X227559Y110630D02*
Y112992D01*
X233957Y137992D02*
X248524Y123425D01*
X233563Y137992D02*
X233957D01*
X211221Y123819D02*
X216339Y118701D01*
X211221Y123819D02*
Y141437D01*
X208268Y118405D02*
Y144095D01*
X219094Y124902D02*
Y137402D01*
X211221Y141437D02*
X249213Y179429D01*
X214665Y128937D02*
Y139370D01*
X192815Y111713D02*
Y118898D01*
X227658Y136352D02*
X234547Y129462D01*
X227658Y136352D02*
Y137992D01*
X227559Y120735D02*
Y129364D01*
Y112992D02*
Y120735D01*
X227461Y129462D02*
X227559Y129364D01*
X249213Y120177D02*
Y122736D01*
X248524Y123425D02*
X249213Y122736D01*
X259941Y129626D02*
X269685D01*
X274390Y134331D01*
X281791Y126279D02*
X289390Y133878D01*
X122274Y98199D02*
X124242D01*
X98032Y122441D02*
X122274Y98199D01*
X80020Y122441D02*
X98032D01*
X57874Y144587D02*
X80020Y122441D01*
X169882Y114272D02*
Y125984D01*
X163976Y114370D02*
Y126181D01*
X163248Y132618D02*
X169882Y125984D01*
X148819Y132618D02*
X163248D01*
X274390Y134331D02*
Y140256D01*
X289390Y133878D02*
Y140256D01*
D17*
X99213Y47638D02*
X99803Y48228D01*
X75197Y42913D02*
X79921Y47638D01*
X75197Y40650D02*
Y42913D01*
X101083Y25098D02*
X104331Y28346D01*
X81988Y25098D02*
X101083D01*
X79429Y27657D02*
X81988Y25098D01*
X79921Y47638D02*
X99213D01*
D21*
X233563Y137992D02*
D03*
X227658D02*
D03*
D31*
X285630Y150197D02*
D03*
X279331D02*
D03*
X233858Y120735D02*
D03*
X227559D02*
D03*
X233858Y112992D02*
D03*
X227559D02*
D03*
D35*
X314961Y102756D02*
D03*
Y109055D02*
D03*
X315059Y116535D02*
D03*
Y122835D02*
D03*
X298130Y116339D02*
D03*
Y122638D02*
D03*
X281693Y69193D02*
D03*
Y62894D02*
D03*
X188287Y78051D02*
D03*
Y84350D02*
D03*
X194882Y78051D02*
D03*
Y84350D02*
D03*
X201673D02*
D03*
Y78051D02*
D03*
X198917Y101673D02*
D03*
Y95374D02*
D03*
D36*
X273945Y69193D02*
D03*
Y63287D02*
D03*
X289441Y69193D02*
D03*
Y63287D02*
D03*
X265748Y116732D02*
D03*
Y122638D02*
D03*
D68*
X250118Y30709D02*
X250217Y30807D01*
X269685D01*
X249921Y30906D02*
X250118Y30709D01*
X163287Y198433D02*
X163480Y198626D01*
X163287Y173819D02*
Y198433D01*
X164272Y152854D02*
X198721Y118405D01*
X134744Y152854D02*
X164272D01*
X198721Y110827D02*
Y118405D01*
X106398Y181201D02*
X134744Y152854D01*
X100492Y181201D02*
X106398D01*
X255610Y207480D02*
X262205Y214075D01*
X255610Y205413D02*
Y207480D01*
X315059Y122835D02*
X315531Y122362D01*
X328248D01*
X314961Y102756D02*
X315354Y102362D01*
X328248D01*
X288779Y69854D02*
Y81299D01*
X274213Y80248D02*
X275756Y81791D01*
X274213Y69193D02*
Y80248D01*
Y63287D02*
X289567D01*
D69*
X234055Y214469D02*
Y219744D01*
Y210531D02*
Y214469D01*
X275000Y211280D02*
X275886Y212165D01*
Y216791D01*
X275098Y221555D02*
X275886Y220768D01*
Y216791D02*
Y220768D01*
X201673Y84350D02*
X213386D01*
X188091Y89370D02*
X188287Y89173D01*
Y84350D02*
Y89173D01*
X194882Y84350D02*
X201673D01*
X188287D02*
X194882D01*
X249213Y120177D02*
X259350D01*
X213386Y84350D02*
X249213Y120177D01*
X225886Y48425D02*
X240945D01*
X225787Y48524D02*
X225886Y48425D01*
X240945D02*
X248465Y40905D01*
X249921D01*
X259114D01*
X263681Y45472D01*
D70*
X284941Y150886D02*
X294193D01*
X284941D02*
X285630Y150197D01*
X287598Y165847D02*
X298031Y155413D01*
Y136614D02*
Y155413D01*
X289390Y127972D02*
X298031Y136614D01*
X235728Y53642D02*
X240945Y48425D01*
X235728Y53642D02*
Y61910D01*
X289390Y118209D02*
Y127972D01*
X265354Y116339D02*
X265748Y116732D01*
X250886Y116339D02*
X265354D01*
X211417Y29429D02*
Y41043D01*
X205315Y23327D02*
X211417Y29429D01*
X186614Y23327D02*
X205315D01*
X180709Y29232D02*
X186614Y23327D01*
X279331Y150197D02*
X279390Y150138D01*
Y140256D02*
Y150138D01*
X285630Y146260D02*
Y150197D01*
X284390Y145020D02*
X285630Y146260D01*
X284390Y140256D02*
Y145020D01*
X296063Y112008D02*
X298130Y114075D01*
X291535Y112008D02*
X296063D01*
X289390Y114154D02*
X291535Y112008D01*
X265748Y114272D02*
Y116732D01*
Y114272D02*
X268012Y112008D01*
X272244D01*
X274390Y114154D01*
Y118209D01*
X298130Y114075D02*
Y116339D01*
X289390Y114154D02*
Y118209D01*
X284390Y114134D02*
Y118209D01*
Y114134D02*
X294094Y104429D01*
Y84319D02*
Y104429D01*
X279390Y113839D02*
Y118209D01*
X267913Y102362D02*
X279390Y113839D01*
X267913Y83791D02*
Y102362D01*
X286779Y91634D02*
X294094Y84319D01*
Y59449D02*
Y84319D01*
X284252Y49606D02*
X294094Y59449D01*
X284252Y47835D02*
Y49606D01*
X267913Y83791D02*
X275756Y91634D01*
X267913Y60728D02*
Y83791D01*
Y60728D02*
X279134Y49508D01*
Y47835D02*
Y49508D01*
Y38307D02*
Y47835D01*
X276142Y35315D02*
X279134Y38307D01*
X284252Y39016D02*
X287953Y35315D01*
X284252Y39016D02*
Y47835D01*
D72*
X105118Y57973D02*
D03*
X97244D02*
D03*
X89370D02*
D03*
X81496D02*
D03*
X73622D02*
D03*
X65748D02*
D03*
X57874D02*
D03*
X50000D02*
D03*
X42126D02*
D03*
X34252D02*
D03*
X105118Y144587D02*
D03*
X97244D02*
D03*
X89370D02*
D03*
X81496D02*
D03*
X73622D02*
D03*
X65748D02*
D03*
X57874D02*
D03*
X50000D02*
D03*
X42126D02*
D03*
D73*
X34252D02*
D03*
D74*
X163480Y198626D02*
D03*
D75*
X173622Y188484D02*
D03*
Y208484D02*
D03*
X153622Y188484D02*
D03*
Y208484D02*
D03*
D76*
X328248Y122362D02*
D03*
Y112362D02*
D03*
Y102362D02*
D03*
X219921Y30906D02*
D03*
Y40905D02*
D03*
X229921Y30906D02*
D03*
Y40905D02*
D03*
X239921Y30906D02*
D03*
Y40905D02*
D03*
X249921Y30906D02*
D03*
X92264Y97441D02*
D03*
X102264D02*
D03*
X112264D02*
D03*
X122264D02*
D03*
X269252Y188091D02*
D03*
X259252D02*
D03*
X249252D02*
D03*
X311575Y35315D02*
D03*
X299764D02*
D03*
X287953D02*
D03*
X276142D02*
D03*
D77*
X249921Y40905D02*
D03*
X82264Y97441D02*
D03*
X239252Y188091D02*
D03*
D78*
X148819Y132618D02*
D03*
X335827Y142756D02*
D03*
X318898Y167323D02*
D03*
X287598D02*
D03*
X335892D02*
D03*
D79*
X148819Y142618D02*
D03*
X335827Y152756D02*
D03*
X318898Y177323D02*
D03*
X287598D02*
D03*
X335892D02*
D03*
D80*
X303150Y18307D02*
D03*
X284646D02*
D03*
D81*
X14370Y208563D02*
D03*
Y14469D02*
D03*
X337795Y13878D02*
D03*
Y208563D02*
D03*
D82*
X75197Y40650D02*
D03*
X146555Y13878D02*
D03*
X104331Y28346D02*
D03*
X79429Y27657D02*
D03*
X99803Y47736D02*
D03*
X294193Y150886D02*
D03*
X124803Y46161D02*
D03*
X111516Y14173D02*
D03*
X99213Y28839D02*
D03*
X76378Y33169D02*
D03*
X57874Y25000D02*
D03*
X159252Y77559D02*
D03*
X162205Y75590D02*
D03*
X150197Y35728D02*
D03*
X156004Y61122D02*
D03*
X123031Y87598D02*
D03*
X273721Y154035D02*
D03*
X80315Y171260D02*
D03*
X235728Y61910D02*
D03*
X193898Y91437D02*
D03*
X237795Y120177D02*
D03*
X250886Y116339D02*
D03*
X259941Y126476D02*
D03*
Y129626D02*
D03*
X190256Y59252D02*
D03*
X163976Y126181D02*
D03*
X248524Y123425D02*
D03*
D83*
X269685Y30807D02*
D03*
X263090Y102067D02*
D03*
X139075Y56398D02*
D03*
X250492Y76083D02*
D03*
X223622Y73425D02*
D03*
X205118Y103248D02*
D03*
X186221Y103347D02*
D03*
X181102Y59350D02*
D03*
X153740Y102461D02*
D03*
X162894Y102264D02*
D03*
X201279Y89370D02*
D03*
X242618Y213878D02*
D03*
X262205Y214075D02*
D03*
X216339Y118701D02*
D03*
X219094Y124902D02*
D03*
X208268Y118405D02*
D03*
X214665Y128937D02*
D03*
X215650Y184744D02*
D03*
X192815Y118898D02*
D03*
X188091Y89370D02*
D03*
X68898Y102756D02*
D03*
X211417Y41043D02*
D03*
X225787Y48524D02*
D03*
X204134Y29232D02*
D03*
X172146D02*
D03*
X180709D02*
D03*
X191831D02*
D03*
X263681Y45472D02*
D03*
X259350Y120177D02*
D03*
D84*
X281693Y56299D02*
D03*
X279134Y47835D02*
D03*
X284252D02*
D03*
D85*
X289390Y118209D02*
D03*
X284390D02*
D03*
X279390D02*
D03*
X274390D02*
D03*
X289390Y140256D02*
D03*
X284390D02*
D03*
X279390D02*
D03*
X274390D02*
D03*
D86*
X100492Y181201D02*
D03*
D87*
X68996D02*
D03*
X131988D02*
D03*
D88*
X234547Y129462D02*
D03*
X227461D02*
D03*
D89*
X163287Y173819D02*
D03*
X169193D02*
D03*
X175098D02*
D03*
X181004D02*
D03*
X186909D02*
D03*
X192815D02*
D03*
X198721D02*
D03*
X204626D02*
D03*
X210531D02*
D03*
X216437D02*
D03*
X163287Y110827D02*
D03*
X169193D02*
D03*
X175098D02*
D03*
X181004D02*
D03*
X186909D02*
D03*
X192815D02*
D03*
X198721D02*
D03*
X204626D02*
D03*
X210531D02*
D03*
X216437D02*
D03*
D90*
X275756Y81791D02*
D03*
Y91634D02*
D03*
Y101476D02*
D03*
X286779Y81791D02*
D03*
Y91634D02*
D03*
Y101476D02*
D03*
D91*
X275098Y221555D02*
D03*
D92*
X275886Y216791D02*
D03*
D93*
X275000Y211280D02*
D03*
D94*
X234055Y219744D02*
D03*
D95*
Y210531D02*
D03*
D96*
X268602Y205413D02*
D03*
X264272D02*
D03*
X259941D02*
D03*
X255610D02*
D03*
X251279D02*
D03*
X246949D02*
D03*
X242618D02*
D03*
X238287D02*
D03*
M02*
