G04*
G04 #@! TF.GenerationSoftware,Altium Limited,Altium Designer,18.1.9 (240)*
G04*
G04 Layer_Physical_Order=1*
G04 Layer_Color=255*
%FSLAX25Y25*%
%MOIN*%
G70*
G01*
G75*
%ADD12C,0.00700*%
%ADD14C,0.01000*%
%ADD17C,0.00800*%
%ADD18R,0.04724X0.08661*%
%ADD19R,0.22835X0.26378*%
%ADD20R,0.04331X0.02362*%
%ADD21R,0.03150X0.03740*%
%ADD22R,0.00787X0.02362*%
%ADD23R,0.02362X0.00787*%
%ADD24R,0.06299X0.01181*%
%ADD25R,0.09449X0.07874*%
%ADD26R,0.05709X0.01181*%
%ADD27R,0.01181X0.05709*%
%ADD28R,0.06890X0.05906*%
%ADD29R,0.05118X0.04331*%
%ADD30R,0.03347X0.03150*%
%ADD31R,0.03543X0.03740*%
%ADD32R,0.02953X0.00984*%
%ADD33R,0.16693X0.15000*%
%ADD34R,0.08661X0.11024*%
%ADD35R,0.03740X0.03543*%
%ADD36R,0.03740X0.03150*%
%ADD68C,0.02000*%
%ADD69C,0.02500*%
%ADD70C,0.01200*%
%ADD71C,0.05000*%
%ADD72C,0.05984*%
%ADD73R,0.05984X0.05984*%
%ADD74C,0.09449*%
%ADD75C,0.09843*%
%ADD76C,0.05906*%
%ADD77R,0.05906X0.05906*%
%ADD78R,0.06890X0.06890*%
%ADD79C,0.06890*%
%ADD80C,0.13780*%
%ADD81C,0.23622*%
%ADD82C,0.02000*%
%ADD83C,0.02500*%
D12*
X-143373Y102200D02*
X-140708D01*
X-142040D01*
Y98202D01*
X-138708D02*
X-137375D01*
X-136709Y98868D01*
Y100201D01*
X-137375Y100867D01*
X-138708D01*
X-139375Y100201D01*
Y98868D01*
X-138708Y98202D01*
X-135376Y96869D02*
Y100867D01*
X-133377D01*
X-132710Y100201D01*
Y98868D01*
X-133377Y98202D01*
X-135376D01*
X-127378Y102200D02*
Y98202D01*
X-124713D01*
X-122713Y100867D02*
X-121380D01*
X-120714Y100201D01*
Y98202D01*
X-122713D01*
X-123380Y98868D01*
X-122713Y99535D01*
X-120714D01*
X-119381Y100867D02*
Y98868D01*
X-118715Y98202D01*
X-116715D01*
Y97535D01*
X-117382Y96869D01*
X-118048D01*
X-116715Y98202D02*
Y100867D01*
X-113383Y98202D02*
X-114716D01*
X-115382Y98868D01*
Y100201D01*
X-114716Y100867D01*
X-113383D01*
X-112716Y100201D01*
Y99535D01*
X-115382D01*
X-111384Y100867D02*
Y98202D01*
Y99535D01*
X-110717Y100201D01*
X-110051Y100867D01*
X-109384D01*
D14*
X300000Y162106D02*
X302362D01*
X191831Y29035D02*
X195374Y32579D01*
X188779Y32087D02*
X191831Y29035D01*
X75492Y175781D02*
X87008Y164265D01*
X162205Y19094D02*
X173917Y30807D01*
X302264Y167224D02*
Y174114D01*
X294783Y167323D02*
X300000Y162106D01*
X207874Y118012D02*
X208268Y118405D01*
X207874Y97146D02*
Y118012D01*
X139075Y56398D02*
X140650D01*
X143799Y52264D02*
Y53248D01*
X140650Y56398D02*
X143799Y53248D01*
X66437Y50591D02*
X71063Y45965D01*
X61949Y50591D02*
X66437D01*
X56791Y45433D02*
X61949Y50591D01*
X56791Y35925D02*
Y45433D01*
Y35925D02*
X61122Y31594D01*
X64961D01*
X287598Y167323D02*
Y175847D01*
Y165847D02*
Y167323D01*
X294783D01*
X250000Y164862D02*
X261319D01*
X89567Y25787D02*
X101870D01*
X104134Y23524D01*
Y20768D02*
Y23524D01*
X85039Y14665D02*
X85138Y14764D01*
Y21358D01*
X64961Y31594D02*
X75886Y20669D01*
X77264D01*
X85138Y21358D02*
X89567Y25787D01*
X96358Y21358D02*
X97342Y20374D01*
X91043Y21358D02*
X96358D01*
X79036Y20669D02*
X84449D01*
X77264D02*
X79036D01*
X84449D02*
X85138Y21358D01*
X101870Y25787D02*
X114469D01*
X258366Y29921D02*
Y56299D01*
X150130Y73590D02*
X170539D01*
X170571Y73622D01*
X150098D02*
X150130Y73590D01*
X159283Y77591D02*
X170539D01*
X159252Y77559D02*
X159283Y77591D01*
X170539D02*
X170571Y77559D01*
X150098Y73622D02*
Y73721D01*
X162205Y75590D02*
X170571D01*
X142815Y28346D02*
X150197Y35728D01*
X136516Y28346D02*
X142815D01*
X158760Y59281D02*
X167195Y67716D01*
X158760Y53937D02*
Y59281D01*
X143405Y38583D02*
X158760Y53937D01*
X155807Y58366D02*
Y61319D01*
X156004Y61122D01*
X149705Y52264D02*
X155807Y58366D01*
X143701Y46260D02*
X149705Y52264D01*
X136516Y46260D02*
X143701D01*
X167348Y65748D02*
X170571D01*
X160337Y58737D02*
X167348Y65748D01*
X167195Y67716D02*
X170571D01*
X167501Y63779D02*
X170571D01*
X161837Y58116D02*
X167501Y63779D01*
X167653Y61811D02*
X170571D01*
X163337Y57494D02*
X167653Y61811D01*
X136516Y38583D02*
X143405D01*
X160337Y53359D02*
Y58737D01*
X143001Y36024D02*
X160337Y53359D01*
X136516Y36024D02*
X143001D01*
X161837Y52737D02*
Y58116D01*
X142564Y33465D02*
X161837Y52737D01*
X136516Y33465D02*
X142564D01*
X163337Y52116D02*
Y57494D01*
X142126Y30906D02*
X163337Y52116D01*
X136516Y30906D02*
X142126D01*
X89370Y57973D02*
X118996Y87598D01*
X123031D01*
X193898Y96949D02*
X194095Y97146D01*
X193898Y91437D02*
Y96949D01*
X198031Y90650D02*
Y97146D01*
X194390Y87008D02*
X198031Y90650D01*
X178150Y87008D02*
X194390D01*
X140650Y56398D02*
X143799Y59547D01*
X250492Y75689D02*
Y76083D01*
X245768Y70965D02*
X250492Y75689D01*
X221850Y71653D02*
X223622Y73425D01*
X215650Y71653D02*
X221850D01*
X203937Y102067D02*
X205118Y103248D01*
X203937Y97146D02*
Y102067D01*
X186221Y97146D02*
X186221Y97146D01*
X186221Y97146D02*
Y103347D01*
X181102Y59350D02*
Y63484D01*
X174902Y69685D02*
X181102Y63484D01*
X170571Y69685D02*
X174902D01*
X181102Y59350D02*
X182283Y58169D01*
Y52067D02*
Y58169D01*
X180315Y52067D02*
Y58563D01*
X181102Y59350D01*
X180610Y59842D02*
X181102Y59350D01*
X170571Y59842D02*
X180610D01*
X149508Y106595D02*
X153642Y102461D01*
X153740D01*
X162894Y102264D02*
X178150Y87008D01*
X201279Y89370D02*
X205906Y93996D01*
X192126Y97146D02*
Y110925D01*
X146679Y156372D02*
X192126Y110925D01*
X109030Y156372D02*
X146679D01*
X163976Y126181D02*
Y136069D01*
X157427Y142618D02*
X163976Y136069D01*
X148819Y142618D02*
X157427D01*
X97244Y144587D02*
X109030Y156372D01*
X242618Y213878D02*
X242717Y213976D01*
X247835D01*
X210236Y91043D02*
X216339Y97146D01*
Y118701D01*
X210236Y79528D02*
Y91043D01*
X212106Y95473D02*
Y118635D01*
X208563Y91929D02*
X212106Y95473D01*
X208563Y77953D02*
Y91929D01*
X210925Y75590D02*
X215650D01*
X208563Y77953D02*
X210925Y75590D01*
X212106Y118635D02*
X218373Y124902D01*
X219094D01*
X210236Y79528D02*
X212205Y77559D01*
X215650D01*
X201969Y116240D02*
X214665Y128937D01*
X201969Y97146D02*
Y116240D01*
X215650Y165256D02*
X215846Y165059D01*
X215650Y165256D02*
Y184744D01*
X215748Y151181D02*
X215846Y151279D01*
X215748Y139173D02*
Y151181D01*
X207185Y133268D02*
X215748D01*
X192815Y118898D02*
X207185Y133268D01*
X237402Y120177D02*
X237795D01*
X234941Y117717D02*
X237402Y120177D01*
X222736Y116535D02*
X229823Y123622D01*
X205906Y93996D02*
Y97146D01*
X188091Y89370D02*
X188189Y89468D01*
Y97146D01*
X248327Y123622D02*
X248524Y123425D01*
X243996Y123622D02*
X248327D01*
X245571Y133268D02*
X251476Y127362D01*
Y122047D02*
Y127362D01*
X247146Y117717D02*
X251476Y122047D01*
X166929Y89370D02*
X170571D01*
X159449Y96850D02*
X166929Y89370D01*
X159449Y96850D02*
Y111024D01*
X166142Y87402D02*
X170571D01*
X157579Y95965D02*
X166142Y87402D01*
X222736Y93307D02*
Y116535D01*
X225098Y115354D02*
X229429Y119685D01*
X225098Y92520D02*
Y115354D01*
X227461Y106201D02*
X240945Y119685D01*
X227461Y91535D02*
Y106201D01*
X255807Y122343D02*
X259941Y126476D01*
X253740Y123104D02*
X259941Y129305D01*
Y129626D01*
X218799Y89370D02*
X222736Y93307D01*
X219980Y87402D02*
X225098Y92520D01*
X150098Y72933D02*
Y73622D01*
X72539Y105512D02*
Y108169D01*
X69784Y102756D02*
X72539Y105512D01*
X68898Y102756D02*
X69784D01*
X68307D02*
X68898D01*
X65453Y105610D02*
X68307Y102756D01*
X65453Y105610D02*
Y108268D01*
X91417Y106595D02*
X149508D01*
X82264Y97441D02*
X91417Y106595D01*
X112264Y97441D02*
X118268Y91437D01*
X137500D01*
X157579Y95965D02*
Y105709D01*
X92264Y97441D02*
X99646Y104823D01*
X145669D01*
X165059Y85433D01*
X170571D01*
X102264Y97441D02*
X107874Y103051D01*
X144783D01*
X164370Y83465D01*
X170571D01*
X122264Y97441D02*
X147933D01*
X163878Y81496D01*
X170571D01*
X151575Y91437D02*
X163484Y79528D01*
X137500Y91437D02*
X151575D01*
X105118Y59055D02*
X137500Y91437D01*
X163484Y79528D02*
X170571D01*
X84547Y79724D02*
X102264Y97441D01*
X79626Y79724D02*
X84547D01*
X57874Y57973D02*
X79626Y79724D01*
X80453Y85630D02*
X92264Y97441D01*
X77657Y85630D02*
X80453D01*
X50000Y57973D02*
X77657Y85630D01*
X81594Y97441D02*
X82264D01*
X42126Y57973D02*
X81594Y97441D01*
X105118Y57973D02*
Y59055D01*
X221358Y85433D02*
X227461Y91535D01*
X215650Y85433D02*
X221358D01*
X255807Y108071D02*
Y122343D01*
X227264Y79528D02*
X255807Y108071D01*
X215650Y89370D02*
X218799D01*
X215650Y87402D02*
X219980D01*
X215650Y81496D02*
X226083D01*
X253740Y109153D01*
X215650Y79528D02*
X227264D01*
X253740Y109153D02*
Y123104D01*
X215650Y65748D02*
X231988D01*
X233465Y67224D01*
X247441D01*
X253346Y61319D01*
X258366Y56299D01*
X256004Y38484D02*
Y51181D01*
X245768Y61417D02*
X256004Y51181D01*
X241535Y65650D02*
X245768Y61417D01*
X234547Y65650D02*
X241535D01*
X232677Y63779D02*
X234547Y65650D01*
X215650Y63779D02*
X232677D01*
X239567Y41260D02*
Y54035D01*
X231791Y61811D02*
X239567Y54035D01*
X215650Y61811D02*
X231791D01*
X245768Y54035D02*
X249921Y49882D01*
X226181Y59842D02*
X231791Y54232D01*
X215650Y59842D02*
X226181D01*
X229921Y40905D02*
X231791Y42776D01*
Y54232D01*
X170571Y73622D02*
X215650D01*
X150098Y73721D02*
X150098Y73721D01*
X190256Y52067D02*
Y59252D01*
X190256Y52067D02*
X190256Y52067D01*
X204035Y29331D02*
X204134Y29232D01*
X204035Y29331D02*
Y34646D01*
X219291Y30906D02*
X219921D01*
X173917Y30807D02*
Y34646D01*
X195374Y32579D02*
Y34646D01*
X188779Y32087D02*
Y34646D01*
X249921Y40905D02*
Y49882D01*
X143799Y79429D02*
Y86122D01*
Y72933D02*
Y79429D01*
Y66240D02*
Y72933D01*
Y59547D02*
Y66240D01*
X150098Y73721D02*
Y79429D01*
Y86122D01*
Y66240D02*
Y72933D01*
X75492Y175781D02*
Y180512D01*
X34252Y144587D02*
X35433D01*
X65453Y114567D01*
X65551Y114469D01*
X72539D01*
X142028Y125827D02*
X148819Y132618D01*
X142028Y122539D02*
Y125827D01*
Y122539D02*
X145472Y119095D01*
X138091Y131890D02*
X148819Y142618D01*
X138091Y117126D02*
Y131890D01*
Y117126D02*
X143209Y112008D01*
X145374D01*
X151279D02*
X157579Y105709D01*
X151378Y119095D02*
X159449Y111024D01*
X237598Y131988D02*
X238878Y133268D01*
X237598Y124705D02*
Y131988D01*
Y124705D02*
X240650Y121654D01*
X232087Y133268D02*
X235827Y129527D01*
Y123031D02*
Y129527D01*
X234449Y121654D02*
X235827Y123031D01*
X231791Y117717D02*
X234941D01*
X245571Y147933D02*
X249016Y151378D01*
X245571Y139173D02*
Y147933D01*
X228937Y151378D02*
X232087Y148228D01*
Y139173D02*
Y148228D01*
X238779Y150886D02*
X238878Y150787D01*
Y139173D02*
Y150787D01*
X243996Y117717D02*
X247146D01*
X240650Y121654D02*
X243996D01*
X231791D02*
X234449D01*
X240945Y119685D02*
X243996D01*
X229429D02*
X231791D01*
X229823Y123622D02*
X231791D01*
X239921Y30906D02*
X246024Y24803D01*
X253248D01*
X258366Y29921D01*
X229921Y30906D02*
X234646Y35630D01*
X253150D01*
X256004Y38484D01*
X239567Y41260D02*
X239921Y40905D01*
D17*
X74803Y31594D02*
X77854Y34646D01*
X78051Y37795D02*
X82579D01*
X75197Y40650D02*
X78051Y37795D01*
X80905Y39370D02*
X82579D01*
X74311Y45965D02*
X80905Y39370D01*
X71063Y45965D02*
X74311D01*
X114469Y28346D02*
X114469Y28346D01*
X104331Y28346D02*
X114469D01*
X77854Y29232D02*
X79429Y27657D01*
X77854Y29232D02*
Y30709D01*
X80216Y33071D01*
X82579D01*
X99803Y47638D02*
Y47736D01*
Y47638D02*
X108858Y38583D01*
X114469D01*
X93602Y28839D02*
X99213D01*
X92618Y29823D02*
X93602Y28839D01*
X92618Y29823D02*
Y30906D01*
X99213Y28839D02*
Y32776D01*
X97342Y34646D02*
X99213Y32776D01*
X94784Y34646D02*
X97342D01*
X79036Y20669D02*
X84744Y26378D01*
Y30906D01*
X77854Y34646D02*
X82579D01*
X71260Y31594D02*
X74803D01*
X73721Y36220D02*
X82579D01*
X71161Y38780D02*
X73721Y36220D01*
X108071Y33465D02*
X114469D01*
X102165Y39370D02*
X108071Y33465D01*
X94784Y39370D02*
X102165D01*
X108268Y30906D02*
X114469D01*
X101378Y37795D02*
X108268Y30906D01*
X94784Y37795D02*
X101378D01*
X108169Y36024D02*
X114469D01*
X103248Y40945D02*
X108169Y36024D01*
X94784Y40945D02*
X103248D01*
D18*
X286516Y129232D02*
D03*
X268406D02*
D03*
D19*
X277461Y104429D02*
D03*
D20*
X77264Y20669D02*
D03*
Y13189D02*
D03*
X66634D02*
D03*
Y16929D02*
D03*
Y20669D02*
D03*
D21*
X85138Y21358D02*
D03*
X91043D02*
D03*
X151378Y119095D02*
D03*
X145472D02*
D03*
X245768Y61417D02*
D03*
X239862D02*
D03*
X253346Y61319D02*
D03*
X259252D02*
D03*
X239862Y54035D02*
D03*
X245768D02*
D03*
X151279Y112008D02*
D03*
X145374D02*
D03*
X231791Y54232D02*
D03*
X225886D02*
D03*
X149705Y52264D02*
D03*
X143799D02*
D03*
D22*
X92618Y43110D02*
D03*
X91043D02*
D03*
X89468D02*
D03*
X87894D02*
D03*
X86319D02*
D03*
X84744D02*
D03*
Y30906D02*
D03*
X86319D02*
D03*
X87894D02*
D03*
X89468D02*
D03*
X91043D02*
D03*
X92618D02*
D03*
D23*
X82579Y40945D02*
D03*
Y39370D02*
D03*
Y37795D02*
D03*
Y36220D02*
D03*
Y34646D02*
D03*
Y33071D02*
D03*
X94784D02*
D03*
Y34646D02*
D03*
Y36220D02*
D03*
Y37795D02*
D03*
Y39370D02*
D03*
Y40945D02*
D03*
D24*
X114469Y46260D02*
D03*
Y43701D02*
D03*
Y41142D02*
D03*
Y38583D02*
D03*
Y36024D02*
D03*
Y33465D02*
D03*
Y30906D02*
D03*
Y28346D02*
D03*
Y25787D02*
D03*
Y23228D02*
D03*
X136516Y46260D02*
D03*
Y43701D02*
D03*
Y41142D02*
D03*
Y38583D02*
D03*
Y36024D02*
D03*
Y33465D02*
D03*
Y30906D02*
D03*
Y28346D02*
D03*
Y25787D02*
D03*
Y23228D02*
D03*
D25*
X199311Y22441D02*
D03*
X183563D02*
D03*
D26*
X215650Y89370D02*
D03*
Y87402D02*
D03*
Y85433D02*
D03*
Y83465D02*
D03*
Y81496D02*
D03*
Y79528D02*
D03*
Y77559D02*
D03*
Y75590D02*
D03*
Y73622D02*
D03*
Y71653D02*
D03*
Y69685D02*
D03*
Y67716D02*
D03*
Y65748D02*
D03*
Y63779D02*
D03*
Y61811D02*
D03*
Y59842D02*
D03*
X170571D02*
D03*
Y61811D02*
D03*
Y63779D02*
D03*
Y65748D02*
D03*
Y67716D02*
D03*
Y69685D02*
D03*
Y71653D02*
D03*
Y73622D02*
D03*
Y75590D02*
D03*
Y77559D02*
D03*
Y79528D02*
D03*
Y81496D02*
D03*
Y83465D02*
D03*
Y85433D02*
D03*
Y87402D02*
D03*
Y89370D02*
D03*
D27*
X207874Y52067D02*
D03*
X205906D02*
D03*
X203937D02*
D03*
X201969D02*
D03*
X200000D02*
D03*
X198031D02*
D03*
X196063D02*
D03*
X194095D02*
D03*
X192126D02*
D03*
X190157D02*
D03*
X188189D02*
D03*
X186221D02*
D03*
X184252D02*
D03*
X182283D02*
D03*
X180315D02*
D03*
X178347D02*
D03*
Y97146D02*
D03*
X180315D02*
D03*
X182283D02*
D03*
X184252D02*
D03*
X186221D02*
D03*
X188189D02*
D03*
X190157D02*
D03*
X192126D02*
D03*
X194095D02*
D03*
X196063D02*
D03*
X198031D02*
D03*
X200000D02*
D03*
X201969D02*
D03*
X203937D02*
D03*
X205906D02*
D03*
X207874D02*
D03*
D28*
X215846Y165059D02*
D03*
Y151279D02*
D03*
X238779Y151378D02*
D03*
Y165157D02*
D03*
X249016Y151378D02*
D03*
Y165157D02*
D03*
X228937Y151378D02*
D03*
Y165157D02*
D03*
D29*
X302264Y181988D02*
D03*
Y174114D02*
D03*
D30*
X97342Y20374D02*
D03*
Y15059D02*
D03*
D31*
X64862Y38780D02*
D03*
X71161D02*
D03*
X247835Y213976D02*
D03*
X254134D02*
D03*
X289075Y144882D02*
D03*
X282776D02*
D03*
X273917D02*
D03*
X267618D02*
D03*
X143799Y59547D02*
D03*
X150098D02*
D03*
X245768Y70965D02*
D03*
X239469D02*
D03*
X143799Y79429D02*
D03*
X150098D02*
D03*
X143799Y66240D02*
D03*
X150098D02*
D03*
X143799Y72933D02*
D03*
X150098D02*
D03*
X143799Y86122D02*
D03*
X150098D02*
D03*
X71063Y45965D02*
D03*
X64764D02*
D03*
X64961Y31594D02*
D03*
X71260D02*
D03*
X85039Y14665D02*
D03*
X91339D02*
D03*
D32*
X243996Y117717D02*
D03*
Y119685D02*
D03*
Y121654D02*
D03*
Y123622D02*
D03*
X231791Y117717D02*
D03*
Y119685D02*
D03*
Y121654D02*
D03*
Y123622D02*
D03*
D33*
X313110Y69685D02*
D03*
X338189D02*
D03*
D34*
X162205Y19094D02*
D03*
Y37992D02*
D03*
X75492Y161614D02*
D03*
Y180512D02*
D03*
D35*
X65453Y108268D02*
D03*
Y114567D02*
D03*
X72539Y108169D02*
D03*
Y114469D02*
D03*
X87008Y164265D02*
D03*
Y157966D02*
D03*
X188779Y34646D02*
D03*
Y40945D02*
D03*
X195374Y34646D02*
D03*
Y40945D02*
D03*
X204035Y34646D02*
D03*
Y40945D02*
D03*
X173917Y34646D02*
D03*
Y40945D02*
D03*
X57776Y13189D02*
D03*
Y19488D02*
D03*
X146358Y19291D02*
D03*
Y25591D02*
D03*
X104134Y14469D02*
D03*
Y20768D02*
D03*
D36*
X94193Y157972D02*
D03*
Y163878D02*
D03*
X238878Y139173D02*
D03*
Y133268D02*
D03*
X245571Y139173D02*
D03*
Y133268D02*
D03*
X232087Y139173D02*
D03*
Y133268D02*
D03*
X180709Y40945D02*
D03*
Y35039D02*
D03*
X215748Y133268D02*
D03*
Y139173D02*
D03*
X302362Y162106D02*
D03*
Y168012D02*
D03*
D68*
X254134Y213976D02*
X269980D01*
X275394Y165847D02*
X287598D01*
X248622Y165157D02*
X249016Y164764D01*
X318898Y167323D02*
Y177323D01*
Y165847D02*
Y167323D01*
X298228Y146457D02*
X318258Y166486D01*
X286516Y134744D02*
X298228Y146457D01*
X335531Y109646D02*
Y152756D01*
X328248Y102362D02*
X335531Y109646D01*
X232283Y174705D02*
X251575D01*
X267618Y158071D02*
Y158661D01*
Y144882D02*
Y158071D01*
X251575Y174705D02*
X267618Y158661D01*
Y158071D02*
X275394Y165847D01*
X269980Y213976D02*
X275394Y208563D01*
Y165847D02*
Y208563D01*
X57776Y19488D02*
X57874Y19587D01*
Y25000D01*
X57776Y19488D02*
X60827D01*
X63386Y16929D01*
X66634D01*
X69390Y13189D02*
X72441Y10138D01*
X66634Y13189D02*
X69390D01*
X78150Y4429D02*
X249213D01*
X66535D02*
X78150D01*
X72441Y10138D02*
X78150Y4429D01*
X72441Y10138D02*
Y18110D01*
X69882Y20669D02*
X72441Y18110D01*
X66634Y20669D02*
X69882D01*
X57776Y13189D02*
X66535Y4429D01*
X269685Y30807D02*
Y37500D01*
X296752Y64567D01*
X249213Y4429D02*
X269685Y24902D01*
Y30807D01*
X75886Y219094D02*
X187894D01*
X94193Y163878D02*
X149114Y218799D01*
X187894Y219094D02*
X232283Y174705D01*
X34252Y177461D02*
X75886Y219094D01*
X34252Y144587D02*
Y177461D01*
X309449Y122362D02*
X328248D01*
X289449D02*
X309449D01*
X296752Y109665D02*
X309449Y122362D01*
X296752Y64567D02*
Y109665D01*
X238779Y165157D02*
X248622D01*
X228937D02*
X238779D01*
X267618Y130020D02*
X268406Y129232D01*
X267618Y130020D02*
Y144882D01*
X286516Y129232D02*
Y134744D01*
X282776Y138484D02*
X286516Y134744D01*
X282776Y138484D02*
Y144882D01*
X286516Y125295D02*
Y129232D01*
Y125295D02*
X289449Y122362D01*
D69*
X259350Y61319D02*
Y90847D01*
X204035Y40945D02*
X211614D01*
X275098Y102067D02*
X277461Y104429D01*
X263090Y102067D02*
X275098D01*
X259350Y90847D02*
Y120177D01*
X211614Y40945D02*
X219193Y48524D01*
X225787D01*
X259252Y61319D02*
X263681Y56890D01*
X225787Y54134D02*
X225886Y54232D01*
X225787Y48524D02*
Y54134D01*
X263681Y45472D02*
Y56890D01*
X259350Y120177D02*
X268406Y129232D01*
D70*
X196161Y52067D02*
Y60236D01*
X186319Y52067D02*
Y60433D01*
X150738Y58908D02*
Y60089D01*
X91339Y14665D02*
X103937D01*
X302264Y181988D02*
X305709Y185433D01*
X146358Y14075D02*
X146555Y13878D01*
X146358Y14075D02*
Y19291D01*
X64862Y37992D02*
X71260Y31594D01*
X64862Y37992D02*
Y38780D01*
X64764Y38878D02*
X64862Y38780D01*
X64764Y38878D02*
Y45965D01*
X327782Y185433D02*
X335892Y177323D01*
X305709Y185433D02*
X327782D01*
X298228Y146457D02*
Y146850D01*
X294193Y150886D02*
X298228Y146850D01*
X124705Y46260D02*
X124803Y46161D01*
X114469Y46260D02*
X124705D01*
X111221Y14469D02*
X111516Y14173D01*
X104134Y14469D02*
X111221D01*
X103937Y14665D02*
X104134Y14469D01*
X263681Y23130D02*
Y45472D01*
X247638Y7087D02*
X263681Y23130D01*
X133071Y25787D02*
X136516D01*
X129724Y22441D02*
X133071Y25787D01*
X129724Y16634D02*
Y22441D01*
X139272Y7087D02*
X247638D01*
X129724Y16634D02*
X139272Y7087D01*
X162303Y71653D02*
X170571D01*
X150738Y60089D02*
X162303Y71653D01*
X146161Y25787D02*
X146358Y25591D01*
X136516Y25787D02*
X146161D01*
X273721Y154035D02*
X273819D01*
X277953Y149902D01*
X239370Y61910D02*
X239862Y61417D01*
X235728Y61910D02*
X239370D01*
X79134Y157972D02*
X94193D01*
X196063Y97146D02*
Y109941D01*
X148031Y157972D02*
X196063Y109941D01*
X94193Y157972D02*
X148031D01*
X232677Y91142D02*
Y98130D01*
X225000Y83465D02*
X232677Y91142D01*
Y98130D02*
X250886Y116339D01*
X239469Y70965D02*
X259350Y90847D01*
X239469Y70965D02*
Y70965D01*
X238189Y69685D02*
X239469Y70965D01*
X215650Y69685D02*
X238189D01*
X215650Y83465D02*
X225000D01*
X211319Y32303D02*
X219921Y40905D01*
X211319Y21161D02*
Y32303D01*
X200295Y10138D02*
X211319Y21161D01*
X156102Y10138D02*
X200295D01*
X151378Y14862D02*
X156102Y10138D01*
X151378Y14862D02*
Y27165D01*
X206988Y69685D02*
X215650D01*
X205020Y71653D02*
X206988Y69685D01*
X170571Y71653D02*
X205020D01*
X194095Y42224D02*
X195374Y40945D01*
X194095Y42224D02*
Y52067D01*
X193701Y62697D02*
X196161Y60236D01*
X188583Y62697D02*
X193701D01*
X186319Y60433D02*
X188583Y62697D01*
X204035Y40945D02*
Y40945D01*
X196063Y48917D02*
X204035Y40945D01*
X196063Y48917D02*
Y52067D01*
X192126Y44291D02*
Y52756D01*
X188189Y52067D02*
Y52658D01*
Y48425D02*
Y52067D01*
X151378Y27165D02*
X162205Y37992D01*
X180709Y29232D02*
Y35039D01*
X75492Y161614D02*
X79134Y157972D01*
X65748Y151870D02*
X75492Y161614D01*
X65748Y144587D02*
Y151870D01*
X284055Y149902D02*
X289075Y144882D01*
X277953Y149902D02*
X284055D01*
X273917Y145866D02*
X277953Y149902D01*
X273917Y144882D02*
Y145866D01*
X199902Y21457D02*
Y36417D01*
X195374Y40945D02*
X199902Y36417D01*
X184744Y21555D02*
Y37106D01*
X188583Y40945D01*
X188779D01*
X192126Y44291D01*
X162205Y37992D02*
X165157Y40945D01*
X173917D01*
X180709Y40945D02*
X188189Y48425D01*
X180709Y40945D02*
X180709Y40945D01*
X173917Y40945D02*
X180709D01*
D71*
X311575Y35315D02*
Y68150D01*
X328248Y102362D02*
X338189Y92421D01*
Y69685D02*
Y92421D01*
X311575Y68150D02*
X313110Y69685D01*
D72*
X105118Y57973D02*
D03*
X97244D02*
D03*
X89370D02*
D03*
X81496D02*
D03*
X73622D02*
D03*
X65748D02*
D03*
X57874D02*
D03*
X50000D02*
D03*
X42126D02*
D03*
X34252D02*
D03*
X105118Y144587D02*
D03*
X97244D02*
D03*
X89370D02*
D03*
X81496D02*
D03*
X73622D02*
D03*
X65748D02*
D03*
X57874D02*
D03*
X50000D02*
D03*
X42126D02*
D03*
D73*
X34252D02*
D03*
D74*
X163480Y198626D02*
D03*
D75*
X173622Y188484D02*
D03*
Y208484D02*
D03*
X153622Y188484D02*
D03*
Y208484D02*
D03*
D76*
X328248Y122362D02*
D03*
Y112362D02*
D03*
Y102362D02*
D03*
X219921Y30906D02*
D03*
Y40905D02*
D03*
X229921Y30906D02*
D03*
Y40905D02*
D03*
X239921Y30906D02*
D03*
Y40905D02*
D03*
X249921Y30906D02*
D03*
X92264Y97441D02*
D03*
X102264D02*
D03*
X112264D02*
D03*
X122264D02*
D03*
X269252Y188091D02*
D03*
X259252D02*
D03*
X249252D02*
D03*
X311575Y35315D02*
D03*
X299764D02*
D03*
X287953D02*
D03*
X276142D02*
D03*
D77*
X249921Y40905D02*
D03*
X82264Y97441D02*
D03*
X239252Y188091D02*
D03*
D78*
X148819Y132618D02*
D03*
X335827Y142756D02*
D03*
X318898Y167323D02*
D03*
X287598D02*
D03*
X335892D02*
D03*
D79*
X148819Y142618D02*
D03*
X335827Y152756D02*
D03*
X318898Y177323D02*
D03*
X287598D02*
D03*
X335892D02*
D03*
D80*
X303150Y18307D02*
D03*
X284646D02*
D03*
D81*
X14370Y208563D02*
D03*
Y14469D02*
D03*
X337795Y13878D02*
D03*
Y208563D02*
D03*
D82*
X75197Y40650D02*
D03*
X146555Y13878D02*
D03*
X104331Y28346D02*
D03*
X79429Y27657D02*
D03*
X99803Y47736D02*
D03*
X294193Y150886D02*
D03*
X124803Y46161D02*
D03*
X111516Y14173D02*
D03*
X99213Y28839D02*
D03*
X76378Y33169D02*
D03*
X57874Y25000D02*
D03*
X159252Y77559D02*
D03*
X162205Y75590D02*
D03*
X150197Y35728D02*
D03*
X156004Y61122D02*
D03*
X123031Y87598D02*
D03*
X273721Y154035D02*
D03*
X80315Y171260D02*
D03*
X235728Y61910D02*
D03*
X193898Y91437D02*
D03*
X237795Y120177D02*
D03*
X250886Y116339D02*
D03*
X259941Y126476D02*
D03*
Y129626D02*
D03*
X190256Y59252D02*
D03*
X163976Y126181D02*
D03*
X248524Y123425D02*
D03*
D83*
X269685Y30807D02*
D03*
X263090Y102067D02*
D03*
X139075Y56398D02*
D03*
X250492Y76083D02*
D03*
X223622Y73425D02*
D03*
X205118Y103248D02*
D03*
X186221Y103347D02*
D03*
X181102Y59350D02*
D03*
X153740Y102461D02*
D03*
X162894Y102264D02*
D03*
X201279Y89370D02*
D03*
X242618Y213878D02*
D03*
X262205Y214075D02*
D03*
X216339Y118701D02*
D03*
X219094Y124902D02*
D03*
X208268Y118405D02*
D03*
X214665Y128937D02*
D03*
X215650Y184744D02*
D03*
X192815Y118898D02*
D03*
X188091Y89370D02*
D03*
X68898Y102756D02*
D03*
X211417Y41043D02*
D03*
X225787Y48524D02*
D03*
X204134Y29232D02*
D03*
X172146D02*
D03*
X180709D02*
D03*
X191831D02*
D03*
X263681Y45472D02*
D03*
X259350Y120177D02*
D03*
M02*
